<svg xmlns="http://www.w3.org/2000/svg" xmlns:xlink="http://www.w3.org/1999/xlink" width="857.1" height="758.8" data-name="Layer 1"><defs><linearGradient id="a" x1="728.9" x2="728.9" y1="502.6" y2="461.8" gradientTransform="scale(1 -1) rotate(58.1 1264 -185.8)" gradientUnits="userSpaceOnUse"><stop offset="0" stop-color="gray" stop-opacity=".3"/><stop offset=".5" stop-color="gray" stop-opacity=".1"/><stop offset="1" stop-color="gray" stop-opacity=".1"/></linearGradient><linearGradient id="b" x1="715.4" x2="715.4" y1="501.1" y2="446.2" gradientTransform="rotate(-31.7 411.5 305.3)" xlink:href="#a"/><linearGradient id="c" x1="770" x2="770" y1="356.2" y2="269.2" gradientTransform="rotate(-31.8 408.7 305.4)" xlink:href="#a"/><linearGradient id="d" x1="411.5" x2="411.5" y1="100.6" y2="15.2" gradientTransform="rotate(23.8 296.2 251)" xlink:href="#a"/><linearGradient id="e" x1="118.5" x2="118.5" y1="758.8" y2="526.5" xlink:href="#a"/><linearGradient id="f" x1="424.8" x2="424.8" y1="252.8" y2="157.6" xlink:href="#a"/><linearGradient id="g" x1="266.8" x2="266.8" y1="132" y2="50.6" xlink:href="#a"/><linearGradient id="h" x1="879.1" x2="879.1" y1="629.4" y2="507.8" gradientTransform="rotate(-31.7 408.5 304.6)" xlink:href="#a"/><linearGradient id="i" x1="396.8" x2="396.8" y1="225" y2="121" gradientTransform="rotate(-31.8 415.2 305.9)" xlink:href="#a"/><linearGradient id="j" x1="236.4" x2="236.4" y1="375.7" y2="256.4" gradientTransform="rotate(23.8 291.2 255.9)" xlink:href="#a"/><linearGradient id="k" x1="685.1" x2="685.1" y1="40.2" y2="-61.8" gradientTransform="matrix(.89 .39 -.39 .88 143 -91.7)" xlink:href="#a"/><linearGradient id="l" x1="412.8" x2="412.8" y1="499.6" y2="373.2" xlink:href="#a"/><linearGradient id="m" x1="738.6" x2="738.6" y1="755.5" y2="523.2" xlink:href="#a"/><linearGradient id="n" x1="427.8" x2="427.8" y1="756.4" y2="522.5" xlink:href="#a"/><linearGradient id="o" x1="426.6" x2="426.6" y1="68.1" xlink:href="#a"/><linearGradient id="p" x1="713.6" x2="713.6" y1="139.1" y2="71" xlink:href="#a"/></defs><g opacity=".5"><path fill="url(#a)" d="M395.8 275.4h31.6v26.5h-31.6z" opacity=".5" transform="rotate(-89.4 290.6 339.9)"/><path fill="#e6e6e6" d="M252.8 233.3l-25.6-.3.3-30.3 25.6.3z"/><circle cx="411.5" cy="287.8" r="4.7" fill="#fff" transform="rotate(-89.5 290.2 339)"/><circle cx="411.5" cy="289.4" r="4.3" fill="#fff" transform="rotate(-89.5 290.2 340.6)"/><path fill="#fff" d="M241 224.8h-2v-3.5h2z"/><path fill="#fff" d="M244.6 233.2h-9.8v-4.6a5 5 0 0 1 5-4.9 5 5 0 0 1 4.9 5v4.5z"/><circle cx="411.5" cy="283.1" r="1.7" fill="#fff" transform="rotate(-89.5 290.2 334.3)"/><path fill="#fff" d="M239.6 209.7a5.1 5.1 0 0 0-2.7.4 6 6 0 0 0-2.1 1.1 5.8 5.8 0 0 0-1.4 4.2 10.4 10.4 0 0 1-.6 4.5 4.4 4.4 0 0 1-4 2.3 3.5 3.5 0 0 0 3.2.1 5 5 0 0 0 2.3-2 12.3 12.3 0 0 0 .8-1.9 24.9 24.9 0 0 1 2.9-5.5 3.5 3.5 0 0 1 .6-.8 2.4 2.4 0 0 1 1.3-.5c.3 0 1 .2 1.2-.2.4-.8-1-1.6-1.6-1.7z"/></g><g opacity=".5"><path fill="url(#b)" d="M740.7 267.4h35.6v42.5h-35.6z" opacity=".5" transform="rotate(-.5 -7111.2 19141.1)"/><path fill="#e6e6e6" d="M569.7 197.7l34.4-.3.4 40.8-34.4.3z"/><circle cx="758.6" cy="287.5" r="6.3" fill="#fff" transform="rotate(-.5 -7111.2 19140)"/><circle cx="758.6" cy="289.6" r="5.8" fill="#fff" transform="rotate(-.5 -7111.2 19142.2)"/><path fill="#fff" d="M585.9 222.5h2.7v4.5h-2.7z"/><path fill="#fff" d="M587.5 225.7a6.6 6.6 0 0 1 6.7 6.5v6l-13.2.2v-6a6.6 6.6 0 0 1 6.6-6.7z"/><circle cx="758.6" cy="281.1" r="2.3" fill="#fff" transform="rotate(-.5 -7111.2 19134.5)"/><path fill="#fff" d="M587.9 206.8a6.9 6.9 0 0 1 3.6.6 8 8 0 0 1 2.8 1.5c1.4 1.4 1.7 3.6 1.8 5.6s0 4.2.8 6a5.9 5.9 0 0 0 5.5 3.2 4.7 4.7 0 0 1-4.5.1 6.7 6.7 0 0 1-3-2.7 16.5 16.5 0 0 1-1-2.6 33.5 33.5 0 0 0-4-7.4 4.8 4.8 0 0 0-.8-1 3.3 3.3 0 0 0-1.6-.7c-.5 0-1.4.2-1.7-.3-.6-1 1.3-2.2 2-2.3z"/></g><g opacity=".5"><path fill="url(#c)" d="M690.5 89.7H747v67.4h-56.5z" opacity=".5" transform="rotate(-.5 -7151.2 18977.9)"/><path fill="#e6e6e6" d="M519.8 20.6l54.6-.5.6 64.7-54.6.5z"/><circle cx="719" cy="121.5" r="10.1" fill="#fff" transform="rotate(-.5 -7151.2 18975.7)"/><circle cx="719" cy="124.8" r="9.2" fill="#fff" transform="rotate(-.5 -7151.2 18979)"/><path fill="#fff" d="M545.5 59.7h4.3l.1 7.2h-4.3z"/><path fill="#fff" d="M548.3 64.2a10.5 10.5 0 0 1 10.6 10.4l.1 9.6-21 .2v-9.6a10.5 10.5 0 0 1 10.3-10.6z"/><circle cx="718.9" cy="111.4" r="3.7" fill="#fff" transform="rotate(-.5 -7151.2 18965.8)"/><path fill="#fff" d="M548.6 34.9a11 11 0 0 1 5.8 1 12.7 12.7 0 0 1 4.4 2.3c2.3 2.2 2.8 5.7 3 9s-.2 6.5 1.3 9.4a9.4 9.4 0 0 0 8.6 5 7.5 7.5 0 0 1-7 .2 10.6 10.6 0 0 1-4.9-4.3 26.2 26.2 0 0 1-1.7-4.1 53 53 0 0 0-6.1-11.8 7.6 7.6 0 0 0-1.4-1.6 5.2 5.2 0 0 0-2.6-1c-.8-.1-2.1.3-2.6-.5-1-1.6 2-3.4 3.2-3.6z"/></g><g opacity=".5"><path fill="url(#d)" d="M450.5 87h58.2v67.7h-58.2z" opacity=".5" transform="rotate(-.5 -7380.4 18976.8)"/><path fill="#e6e6e6" d="M280 18l56-.5.5 66.3-56 .5z"/><circle cx="479.2" cy="119.6" r="10.3" fill="#fff" transform="rotate(-.5 -7380.4 18975.7)"/><circle cx="479.2" cy="123.1" r="9.4" fill="#fff" transform="rotate(-.5 -7380.4 18979)"/><path fill="#fff" d="M305.6 58.2h4.4v7.4h-4.3z"/><path fill="#fff" d="M308.3 63.4a10.8 10.8 0 0 1 11 10.7V84l-21.6.2v-9.9a10.8 10.8 0 0 1 10.6-10.9zM300.5 41.6s6.2-3.8 7.4-7.9a37.7 37.7 0 0 0 7.3 10z"/></g><path fill="url(#e)" d="M0 526.5h237.1v232.3H0z"/><path fill="#fff" d="M1.2 528.3h234.7V757H1.2z"/><path fill="#5c6ac4" d="M25 547.3h187v145.2H25z"/><path fill="#e0e0e0" d="M36.4 708h165.2v7.6H36.4zM62.8 723.2h112.5v7.6H62.8z"/><path fill="url(#f)" d="M382.9 157.6h83.7v95.2h-83.7z" opacity=".5"/><path fill="#e6e6e6" d="M385.6 158.9h79.3v93.9h-79.3z"/><circle cx="424.3" cy="203.2" r="14.6" fill="#fff"/><circle cx="424.3" cy="208" r="13.3" fill="#fff"/><path fill="#fff" d="M421.2 216h6.2v10.6h-6.2z"/><path fill="#fff" d="M422.8 223.5h4.4a13 13 0 0 1 13 13.1v16.2h-30.5v-16.2a13 13 0 0 1 13-13zM417.4 187.6q-1.4.7-2.7 1.6a4.8 4.8 0 0 0-2 1.8 3.5 3.5 0 0 1-.5.9c-.4.4-1 .4-1.7.6-2 .4-3 2.6-3.5 4.5a32.4 32.4 0 0 0-.7 3.5 4.4 4.4 0 0 0 0 2.3l.4 1c.4 1.2-.6 2.3-.9 3.5a6 6 0 0 0 .6 3.3 3.9 3.9 0 0 0 .4.9 6.2 6.2 0 0 0 .6.6 5.2 5.2 0 0 1 1 1.6 34.2 34.2 0 0 1 6.2 1.7c3.2 1.3 6.4 3 10 3a9.2 9.2 0 0 0 2.7-.6c1.8-.7 3.3-1.9 5-2.4a43.8 43.8 0 0 1 5-.9c.8-.1 1.8-.7 1.5-1.5a2.3 2.3 0 0 0 2.4-.5 6.4 6.4 0 0 0 1.4-2 19.3 19.3 0 0 0 1.7-4.2 11.7 11.7 0 0 0-1-8.2 3.7 3.7 0 0 0-1-1.3c-.4-.2-.8-.3-1-.6a3.7 3.7 0 0 1-.8-1L437 190a10.8 10.8 0 0 0-4.6-4.2c-3-1.2-5 .6-7.8.7-1.3 0-2.3-.4-3.6-.2a13 13 0 0 0-3.5 1.4z"/><path fill="url(#g)" d="M231 50.6h71.5V132H231z" opacity=".5"/><path fill="#e6e6e6" d="M233.3 51.8h67.8v80.3h-67.8z"/><circle cx="266.4" cy="89.6" r="12.5" fill="#fff"/><circle cx="266.4" cy="93.8" r="11.4" fill="#fff"/><path fill="#fff" d="M263.8 100.6h5.3v9.1h-5.3z"/><path fill="#fff" d="M267 107a13 13 0 0 1 13 13.1V132h-26v-11.9a13 13 0 0 1 13-13zM260.6 76.3l-2.4 1.4a4.1 4.1 0 0 0-1.7 1.5 3 3 0 0 1-.4.8c-.3.4-1 .4-1.4.5-1.7.4-2.6 2.2-3 3.9a27.7 27.7 0 0 0-.7 3 3.7 3.7 0 0 0 0 2l.4.8c.3 1-.5 2-.7 3a5.2 5.2 0 0 0 .4 2.8 3.3 3.3 0 0 0 .4.7 5.3 5.3 0 0 0 .5.6 4.4 4.4 0 0 1 .8 1.3 29.3 29.3 0 0 1 5.3 1.5c2.8 1.1 5.5 2.6 8.5 2.5a7.8 7.8 0 0 0 2.4-.5c1.4-.5 2.7-1.5 4.3-2a37.5 37.5 0 0 1 4.2-.7c.7-.1 1.5-.7 1.3-1.3a2 2 0 0 0 2-.4 5.4 5.4 0 0 0 1.2-1.8 16.5 16.5 0 0 0 1.4-3.5 10 10 0 0 0-.9-7 3.1 3.1 0 0 0-.8-1.1l-.9-.5a3.2 3.2 0 0 1-.7-.9q-1.4-2.3-3-4.5a9.3 9.3 0 0 0-3.9-3.6c-2.5-1-4.3.5-6.7.6-1 0-2-.4-3-.1a11.2 11.2 0 0 0-3 1z"/><path fill="url(#h)" d="M908.1 234.5H987v94.2h-78.9z" opacity=".5" transform="translate(-174 -62)"/><path fill="#e6e6e6" d="M737.8 166l76.3-.7.8 90.3-76.3.7z"/><circle cx="947.9" cy="278.9" r="14.1" fill="#fff" transform="rotate(-.5 -6923.8 19132)"/><circle cx="947.9" cy="283.6" r="12.8" fill="#fff" transform="rotate(-.5 -6923.9 19136.5)"/><path fill="#fff" d="M773.6 220.7h6l.1 10.1h-6z"/><path fill="#fff" d="M775.7 227.9h3.2a13 13 0 0 1 13.2 13l.1 15-29.4.2-.1-15a13 13 0 0 1 13-13.2z"/><circle cx="947.8" cy="264.9" r="5.1" fill="#fff" transform="rotate(-.5 -6923.8 19117.8)"/><path fill="#fff" d="M778 186c2.7-.5 5.4.4 8 1.3a17.8 17.8 0 0 1 6.2 3.4c3.2 3 4 8 4 12.4s-.1 9.2 1.9 13.2a13 13 0 0 0 12 7c-2.8 2-6.7 1.8-9.8.4a14.8 14.8 0 0 1-6.7-6.1 36.6 36.6 0 0 1-2.4-5.7 74.1 74.1 0 0 0-8.6-16.5 10.6 10.6 0 0 0-1.9-2.2 7.2 7.2 0 0 0-3.6-1.5c-1.1-.1-3 .4-3.7-.7-1.4-2.3 3-4.7 4.6-5z"/><path fill="url(#i)" d="M294.9 164.1h67.5v80.5h-67.5z" opacity=".5" transform="translate(-173.3 -67.6)"/><path fill="#e6e6e6" d="M124.3 95.4l65.2-.6.7 77.2-65.2.6z"/><circle cx="328.9" cy="202.1" r="12" fill="#fff" transform="rotate(-.5 -7537.2 19055.5)"/><circle cx="329" cy="206.1" r="10.9" fill="#fff" transform="rotate(-.5 -7537.2 19059.9)"/><path fill="#fff" d="M155 142.1h5.1l.1 8.7h-5z"/><path fill="#fff" d="M158.2 148.3a12.6 12.6 0 0 1 12.7 12.4v11.5l-25 .2-.2-11.4a12.6 12.6 0 0 1 12.5-12.7z"/><circle cx="328.8" cy="190.1" r="4.4" fill="#fff" transform="rotate(-.5 -7537.2 19043.3)"/><path fill="#fff" d="M158.8 112.4a13 13 0 0 1 6.8 1.1 15.2 15.2 0 0 1 5.3 2.9c2.8 2.6 3.4 6.8 3.5 10.6s-.1 7.9 1.6 11.3a11.2 11.2 0 0 0 10.3 6c-2.4 1.7-5.7 1.5-8.4.3a12.7 12.7 0 0 1-5.8-5.2 31.3 31.3 0 0 1-2-4.9 63.4 63.4 0 0 0-7.3-14 9 9 0 0 0-1.6-2 6.2 6.2 0 0 0-3.1-1.2c-1-.1-2.6.3-3.2-.6-1.2-2 2.5-4 3.9-4.3z"/><path fill="url(#j)" d="M176.2 241.6h81.3v94.5h-81.3z" opacity=".5" transform="rotate(-.5 -7644.5 19146.4)"/><path fill="#e6e6e6" d="M6 173.3l78.1-.7.9 92.7-78.2.7z"/><circle cx="216.3" cy="287.2" r="14.4" fill="#fff" transform="rotate(-.5 -7645.6 19144.2)"/><circle cx="216.3" cy="292" r="13.1" fill="#fff" transform="rotate(-.5 -7645.6 19149.7)"/><path fill="#fff" d="M41.9 229.4l6-.1.2 10.5H42z"/><path fill="#fff" d="M43.7 236.7h4a13 13 0 0 1 13.2 13l.1 15.7-30.2.3-.1-15.8a13 13 0 0 1 13-13.2zM34.7 206.2s8.7-5.3 10.4-11c0 0 4 8.3 10.2 13.9z"/><circle cx="288.8" cy="679" r="24.9" fill="#fff" transform="rotate(-.5 -7572.5 19539)"/><circle cx="288.8" cy="687.3" r="22.6" fill="#fff" transform="rotate(-.5 -7572.5 19546.7)"/><path fill="#fff" d="M112.2 630.4l10.6-.1.2 18-10.6.2z"/><path fill="#fff" d="M118 643.2h1.5a25.2 25.2 0 0 1 25.5 25l.2 24.6-52 .4-.3-24.5a25.2 25.2 0 0 1 25-25.5zM99.8 590.4s15-9.2 18-19c0 0 6.8 14.3 17.5 24z"/><path fill="url(#k)" d="M724.9 124.8h67.8v77.4h-67.8z" opacity=".5" transform="rotate(-.5 -7099.6 19020)"/><path fill="#e6e6e6" d="M554.5 56l65.2-.5.7 75.9-65.2.6z"/><ellipse cx="758.3" cy="162.1" fill="#fff" rx="12" ry="11.8" transform="rotate(-.5 -7099.6 19018.9)"/><ellipse cx="758.4" cy="166.1" fill="#fff" rx="10.9" ry="10.7" transform="rotate(-.5 -7099.6 19022.2)"/><path fill="#fff" d="M584.6 101.3h5.1v8.5h-5z"/><path fill="#fff" d="M587.5 108a12.6 12.6 0 0 1 12.7 12.5l.1 11-25.1.3-.1-11a12.6 12.6 0 0 1 12.4-12.7zM578.4 83s7.3-4.3 8.7-9a43.1 43.1 0 0 0 8.5 11.4z"/><path fill="url(#l)" d="M359 373.2v1.9l39.5 68.3v40.7l28.9 15.5V443.4l39.2-68.3v-1.9H359z" opacity=".5"/><path fill="#cfd8dc" d="M360.2 374.1h104.5v1.8H360.2z"/><path d="M360.2 374.1h104.5v1.8H360.2z" opacity=".1"/><path fill="#cfd8dc" d="M360.2 375.9l38.4 67.4v40.2l28.1 14.4v-54.6l38.1-67.4H360.2z"/><path fill="#fff" d="M400.4 483.5v-40.2L362 375.9h-1.8l38.4 67.4v40.2h1.8z" opacity=".2"/><path fill="#cfd8dc" d="M398.6 483.5l28.1 15.3v-.9l-26.3-14.4h-1.8z"/><path d="M398.6 483.5l28.1 15.3v-.9l-26.3-14.4h-1.8z" opacity=".1"/><path fill="url(#m)" d="M620 523.2h237.1v232.3H620z"/><path fill="#fff" d="M621.2 525h234.7v228.7H621.2z"/><path fill="#5c6ac4" d="M645 544h187v145.2H645z"/><path fill="#e0e0e0" d="M658.3 709.6h165.2v7.6H658.3zM684.6 724.8h112.5v7.6H684.6z"/><path fill="url(#n)" d="M308.4 522.5h238.8v234H308.4z"/><path fill="#fff" d="M309.6 524.3H546v230.4H309.6z"/><path fill="#5c6ac4" d="M333.6 543.4H522v146.3H333.6z"/><path fill="#e0e0e0" d="M340.6 707.1h166.3v7.7H340.6zM367.2 722.5h113.3v7.7H367.2z"/><path fill="none" stroke="#3ad29f" stroke-dasharray="12" stroke-miterlimit="10" stroke-width="2" d="M42.1 283.4s-1 111 97 90 101-55 213-11M776.1 273.4s1 111-97 90-101-55-213-11M424.1 273.4s-13 31 6 46-2 47-2 47M157.6 194.7s15 73 88 73 137 82 123 92M263.6 153.7s-19.3 35.3 1.9 71.3a76 76 0 0 0 45.6 34.5c45.3 12.4 65.2 6.6 94.5 81.2M586.5 155.7s15.4 18.7-13.3 58.2a97.7 97.7 0 0 1-45.3 33.8c-29 10.8-57.4 42-57.4 88"/><g opacity=".5"><path fill="url(#o)" d="M396.7 0h59.9v68.1h-59.9z" opacity=".5"/><path fill="#e6e6e6" d="M398.6.9h56.7v67.2h-56.7z"/><circle cx="426.3" cy="32.6" r="10.5" fill="#fff"/><circle cx="426.3" cy="36.1" r="9.5" fill="#fff"/><path fill="#fff" d="M424.1 41.8h4.4v7.6h-4.4z"/><path fill="#fff" d="M426.8 47.2a11 11 0 0 1 10.9 11v10h-21.9v-10a11 11 0 0 1 11-11zM421.4 21.5l-2 1.1A3.4 3.4 0 0 0 418 24a2.5 2.5 0 0 1-.3.7c-.3.3-.8.3-1.3.4-1.4.3-2 1.9-2.5 3.2a23.2 23.2 0 0 0-.5 2.5 3.1 3.1 0 0 0 0 1.7c.1.2.3.4.3.7.3.8-.4 1.6-.6 2.5a4.3 4.3 0 0 0 .4 2.3 2.8 2.8 0 0 0 .3.7 4.5 4.5 0 0 0 .4.4 3.7 3.7 0 0 1 .7 1.2 24.5 24.5 0 0 1 4.4 1.2c2.3 1 4.6 2.2 7.1 2a6.6 6.6 0 0 0 2-.3c1.3-.5 2.4-1.3 3.6-1.7a31.4 31.4 0 0 1 3.6-.6c.6-.1 1.3-.6 1-1.1a1.7 1.7 0 0 0 1.8-.3 4.5 4.5 0 0 0 1-1.5 13.8 13.8 0 0 0 1.2-3 8.3 8.3 0 0 0-.8-5.9 2.6 2.6 0 0 0-.7-.9l-.7-.4a2.6 2.6 0 0 1-.6-.8l-2.5-3.8a7.8 7.8 0 0 0-3.3-3c-2-.8-3.6.5-5.6.6a14.3 14.3 0 0 0-2.6-.2 9.4 9.4 0 0 0-2.4 1z"/></g><g opacity=".5"><path fill="url(#p)" d="M683.7 71h59.9v68.1h-59.9z" opacity=".5"/><path fill="#e6e6e6" d="M685.6 72h56.7v67.2h-56.7z"/><circle cx="713.3" cy="103.6" r="10.5" fill="#fff"/><circle cx="713.3" cy="107.1" r="9.5" fill="#fff"/><path fill="#fff" d="M711.1 112.8h4.4v7.6h-4.4z"/><path fill="#fff" d="M713.8 118.2a11 11 0 0 1 10.9 11v10h-21.9v-10a11 11 0 0 1 11-11zM708.4 92.5l-2 1.1A3.4 3.4 0 0 0 705 95a2.5 2.5 0 0 1-.3.7c-.3.3-.8.3-1.3.4-1.4.3-2 1.9-2.5 3.2a23.2 23.2 0 0 0-.5 2.5 3.1 3.1 0 0 0 0 1.7c.1.2.3.4.3.7.3.8-.4 1.6-.6 2.5a4.3 4.3 0 0 0 .4 2.3 2.8 2.8 0 0 0 .3.7 4.5 4.5 0 0 0 .4.4 3.7 3.7 0 0 1 .7 1.2 24.5 24.5 0 0 1 4.4 1.2c2.3 1 4.6 2.2 7.1 2a6.6 6.6 0 0 0 2-.3c1.3-.5 2.4-1.3 3.6-1.7a31.4 31.4 0 0 1 3.6-.6c.6-.1 1.3-.6 1-1.1a1.7 1.7 0 0 0 1.7-.3 4.5 4.5 0 0 0 1-1.5 13.8 13.8 0 0 0 1.3-3 8.3 8.3 0 0 0-.8-5.9 2.6 2.6 0 0 0-.7-.9l-.7-.4a2.6 2.6 0 0 1-.6-.8l-2.5-3.8a7.8 7.8 0 0 0-3.3-3c-2-.8-3.6.5-5.6.6a14.3 14.3 0 0 0-2.6-.2 9.4 9.4 0 0 0-2.4 1z"/></g><circle cx="595.8" cy="680.8" r="23.7" fill="#fff" transform="rotate(-.5 -7272.7 19529.4)"/><circle cx="595.9" cy="688.7" r="21.5" fill="#fff" transform="rotate(-.5 -7272.8 19538.2)"/><path fill="#fff" d="M419.6 631h10l.2 17.1-10 .1z"/><path fill="#fff" d="M425.8 643.1a24.7 24.7 0 0 1 25 24.5l.2 22.6-49.5.5-.2-22.6a24.7 24.7 0 0 1 24.5-25z"/><circle cx="595.6" cy="657.1" r="8.6" fill="#fff" transform="translate(-177.3 -65.2)"/><path fill="#fff" d="M427 572.6c4.5-.9 9.1.6 13.4 2.2 3.8 1.3 7.5 2.9 10.4 5.6 5.5 5.2 6.7 13.4 6.9 21s-.2 15.4 3.1 22.1a22 22 0 0 0 20.4 12c-4.9 3.1-11.4 2.8-16.7.4a24.9 24.9 0 0 1-11.3-10.1 61.7 61.7 0 0 1-4-9.6 124.7 124.7 0 0 0-14.4-27.8 17.8 17.8 0 0 0-3.2-3.7 12.1 12.1 0 0 0-6.2-2.5c-1.8-.3-5 .6-6.1-1.2-2.4-3.8 5-8 7.7-8.4z"/><circle cx="743.8" cy="612.3" r="22.9" fill="#fff"/><path fill="#fff" d="M738.5 626h10.7v18.4h-10.7z"/><path fill="#fff" d="M743.9 639h2.2a25.3 25.3 0 0 1 25.3 25.3v25.2h-52.8v-25.2A25.3 25.3 0 0 1 744 639zM769.5 635.4c-1 1-48 3-51 0 2-10 0-34.5 0-34.5a25.5 25.5 0 0 1 25.5-25.5 25.5 25.5 0 0 1 25.5 25.5s-3 30.5 0 34.5z"/></svg>