<svg xmlns="http://www.w3.org/2000/svg" xmlns:xlink="http://www.w3.org/1999/xlink" width="916.5" height="762" data-name="Layer 1"><defs><linearGradient id="a" x1="300.8" x2="300.8" y1="541.7" y2="274.2" gradientTransform="matrix(1 0 0 1.02 0 -12.2)" gradientUnits="userSpaceOnUse"><stop offset="0" stop-color="gray" stop-opacity=".3"/><stop offset=".5" stop-color="gray" stop-opacity=".1"/><stop offset="1" stop-color="gray" stop-opacity=".1"/></linearGradient><linearGradient id="b" x1="159" x2="159" y1="409.3" y2="343.8" xlink:href="#a"/><linearGradient id="c" x1="300.8" x2="300.8" y1="478.3" y2="421.4" xlink:href="#a"/><linearGradient id="d" x1="776.8" x2="776.8" y1="675.1" y2="654.8" gradientTransform="translate(.3 -.3)" xlink:href="#a"/><linearGradient id="e" x1="776.9" x2="776.9" y1="561.9" y2="194.3" gradientTransform="matrix(1 0 0 1.04 -.6 -19.9)" xlink:href="#a"/><linearGradient id="f" x1="797.2" x2="797.2" y1="255.7" y2="163.3" xlink:href="#a"/><linearGradient id="g" x1="912.2" x2="963" y1="283" y2="283" xlink:href="#a"/><linearGradient id="h" x1="797.7" x2="797.7" y1="366.4" y2="274.1" xlink:href="#a"/><linearGradient id="i" x1="939.5" x2="939.5" y1="435.6" y2="351.1" xlink:href="#a"/><linearGradient id="j" x1="36.3" x2="36.3" y1="72.6" xlink:href="#a"/><linearGradient id="k" x1="444.7" x2="444.7" y1="829.4" y2="406.2" gradientTransform="matrix(1 0 0 1.02 .2 -11.3)" xlink:href="#a"/><linearGradient id="l" x1="445.2" x2="445.2" y1="793.5" y2="438.5" gradientTransform="matrix(1 0 0 1.02 .2 -11.3)" gradientUnits="userSpaceOnUse"><stop offset="0" stop-opacity=".1"/><stop offset=".6" stop-opacity=".1"/><stop offset="1" stop-opacity="0"/></linearGradient><linearGradient id="m" x1="346.3" x2="346.3" y1="674.1" y2="581.8" xlink:href="#a"/><linearGradient id="n" x1="462.6" x2="513.4" y1="701.5" y2="701.5" xlink:href="#a"/><linearGradient id="o" x1="256.3" x2="256.3" y1="673.1" y2="580.8" xlink:href="#a"/><linearGradient id="p" x1="372.6" x2="423.4" y1="700.5" y2="700.5" xlink:href="#a"/></defs><rect width="149.3" height="271.9" x="226.1" y="266.6" fill="url(#a)" rx="10" ry="10" transform="translate(-142.3 -68.6)"/><rect width="142.4" height="261.1" x="229.5" y="271.1" fill="#fff" rx="10" ry="10" transform="translate(-142.3 -68.6)"/><path fill="#e6e6e6" d="M103.7 220.6l110.3-.2.3 212.5-110.3.2z"/><ellipse cx="300.9" cy="517.4" fill="#dbdbdb" rx="8.8" ry="9" transform="rotate(-.1 -49188 102009.5)"/><ellipse cx="283.9" cy="279.6" fill="#dbdbdb" rx="1.8" ry="1.8" transform="rotate(-.1 -49209.4 101773.1)"/><rect width="27.3" height="2.7" x="291.8" y="278.3" fill="#dbdbdb" rx="1" ry="1" transform="rotate(-.1 -49187.9 101773.1)"/><path fill="url(#b)" d="M127.8 343.8h62.4v65.6h-62.4z"/><path fill="#5c6ac4" d="M130.5 346.6h57v59.9h-57z"/><path fill="url(#c)" d="M305 442.7v-1h3v-5.9a9.3 9.3 0 1 0-15.7-.4v6.2h3.3v1.3a19.2 19.2 0 0 0-14 18.6v16.8H320v-16.8a19.2 19.2 0 0 0-15-18.8z" opacity=".5" transform="translate(-141.8 -69)"/><path fill="#f55f44" d="M151.4 362h14.3v11.4h-14.3z"/><path fill="#fdd835" d="M154.5 374h9a12.9 12.9 0 0 1 12.8 12.9v19.7h-34.7v-19.8a12.9 12.9 0 0 1 12.9-12.8z"/><rect width="8.5" height="10.6" x="154.4" y="368.3" fill="#fda57d" rx="3.1" ry="3.1"/><path fill="#fda57d" d="M157 378.6l1.6 2.3 1.7-2.3H157z"/><path d="M148.1 387s-1.7 16.8-.6 18M169 387s1.7 16.8.6 18M158.6 373.5a7 7 0 0 0 4.2-1.4 4.3 4.3 0 0 0-4.2-3.6 4.3 4.3 0 0 0-4.2 3.6 7 7 0 0 0 4.2 1.4z" opacity=".1"/><circle cx="158.6" cy="363.6" r="8.4" fill="#f55f44"/><circle cx="158.6" cy="366.2" r="7.1" fill="#fda57d"/><ellipse cx="151.5" cy="365.7" fill="#fda57d" rx=".5" ry=".9"/><ellipse cx="165.8" cy="365.7" fill="#fda57d" rx=".5" ry=".9"/><path fill="#fff" d="M110.9 234.3h96.2v4.2h-96.2zM110.9 242.6h96.2v4.2h-96.2zM110.9 251h54.4v4.2h-54.4zM110.9 259.4h79.5v4.2h-79.5zM110.9 267.7h67v4.2h-67zM110.9 276.1h96.2v4.2h-96.2zM115 288.6h83.7v33.5H115z"/><path fill="#e0e0e0" d="M705.5 457.1s14 96.2 96.2 128.2l-166.3.2-166.3.2c82-32.2 95.8-128.4 95.8-128.4z"/><path fill="url(#d)" d="M609.2 654.5h335.7v20.3H609.2z" transform="rotate(-.1 -48722.6 102153)"/><path fill="#f5f5f5" d="M469 585.7l332.6-.4V601l-332.5.4z"/><path fill="url(#e)" d="M1047 180l-540.9.8a11.1 11.1 0 0 0-10.8 11.3l.4 315.6v10.5c0 24 18.6 43.4 41.5 43.4l479.6-.7c23 0 41.5-19.5 41.5-43.5V507l-.4-315.5A11.1 11.1 0 0 0 1047 180z" transform="translate(-141.8 -69)"/><path fill="#fff" d="M370.8 121.6h527.5a10.8 10.8 0 0 1 10.7 10.7v300.3H360V132.3a10.8 10.8 0 0 1 10.8-10.7z"/><path fill="#f5f5f5" d="M871.4 482.6l-472.4.6a38.3 38.3 0 0 1-38.3-38.3v-13l549-.7v13a38.3 38.3 0 0 1-38.3 38.4z"/><path fill="#e6e6e6" d="M387.2 146.8H884v251H387.2z"/><path fill="url(#f)" d="M753.2 163.3h87.9v92.3h-87.9z"/><path fill="#5c6ac4" d="M757 167.3h80.3v84.3H757z"/><path fill="url(#g)" d="M944.4 273.8l-1-.3v-2.7a6.3 6.3 0 0 0-.2-1 10.4 10.4 0 0 0 3.6-4.7 12.3 12.3 0 1 0-19.4 0 10.4 10.4 0 0 0 3.6 4.7 6.3 6.3 0 0 0-.1 1v3a25.4 25.4 0 0 0-18.7 24.6v22.3H963v-22.4a25.4 25.4 0 0 0-18.6-24.5z" opacity=".5" transform="translate(-141.8 -69)"/><path fill="#514abf" d="M794.3 204.3h3.1a23 23 0 0 1 23 23v23h-49v-23a23 23 0 0 1 22.9-23z"/><rect width="12" height="15" x="789.4" y="196.3" fill="#fda57d" rx="5.6" ry="5.6"/><path d="M785.2 206.9l4 8.7 4-4-4-6.2-4 1.5z" opacity=".1"/><path fill="#fff" d="M785.3 206.5l4 8.6 4-4-4-6-1.8.5a4.6 4.6 0 0 0-.5.2z"/><path d="M805.5 206.5l-4 9.1-4-4 4.1-6.5 3.9 1.4z" opacity=".1"/><path fill="#fff" d="M805.4 206.1l-4 9-4-4 4-6.4.8.2a20 20 0 0 1 2.4.8z"/><path fill="#fda57d" d="M793 210.8l2.3 3.3 2.3-3.3H793z"/><path d="M780.6 222.6s-2.4 23.7-.9 25.3M810 222.6s2.4 23.7.8 25.3M795.4 203.6a10 10 0 0 0 5.9-2 6 6 0 0 0-6-5 6 6 0 0 0-5.9 5 10 10 0 0 0 6 2z" opacity=".1"/><circle cx="795.4" cy="189.6" r="11.8"/><circle cx="795.4" cy="193.3" r="10" fill="#fda57d"/><path d="M787.3 183.4l2.5 3s11 1 12.3-1.5-7.2-4.3-7.2-4.3z" opacity=".1"/><path d="M787.3 183.1l2.5 3.1s11 1 12.3-1.5-7.2-4.4-7.2-4.4z"/><ellipse cx="785.3" cy="192.7" fill="#fda57d" rx=".7" ry="1.3"/><ellipse cx="805.4" cy="192.7" fill="#fda57d" rx=".7" ry="1.3"/><path fill="url(#h)" d="M753.7 274.1h87.9v92.3h-87.9z"/><path fill="#5c6ac4" d="M757.5 278.1h80.3v84.3h-80.3z"/><path fill="url(#i)" d="M945.5 385.1V382v-.5a11 11 0 0 0 3.8-5 13 13 0 0 0-5.5-20 4.4 4.4 0 1 0-8.7-.4 13 13 0 0 0-6.5 20.4 11 11 0 0 0 3.7 5v3.8a24.5 24.5 0 0 0-19.8 24v26.3h54v-26.3a24.5 24.5 0 0 0-21-24.2z" opacity=".5" transform="translate(-141.8 -69)"/><path fill="#fff" d="M796.1 316.7h3.1a23 23 0 0 1 23 22.9v23h-49v-23a23 23 0 0 1 23-23z"/><rect width="12" height="15" x="791.2" y="308.7" fill="#fdb797" rx="5.6" ry="5.6"/><path fill="#fdb797" d="M794.9 323.2l2.2 3.3 2.4-3.3h-4.6z"/><path d="M782.4 335s-2.4 23.7-.8 25.2M811.9 335s2.3 23.7.8 25.2M797.2 316a10 10 0 0 0 6-2 6 6 0 0 0-6-5 6 6 0 0 0-6 5 10 10 0 0 0 6 2z" opacity=".1"/><circle cx="797.2" cy="302" r="11.8" fill="#fdd835"/><circle cx="797.2" cy="305.7" r="10" fill="#fdb797"/><ellipse cx="787.2" cy="305" fill="#fdb797" rx=".7" ry="1.3"/><ellipse cx="807.2" cy="305" fill="#fdb797" rx=".7" ry="1.3"/><circle cx="797.7" cy="290.2" r="4" fill="#fdd835"/><path fill="#fdd835" d="M789.7 294.2s4 8 16 4l-4-4z"/><path fill="#fff" d="M427 178.3h221v9.6H427zM427 197.5h221v9.6H427zM427 216.7h124.9v9.6H427zM427 235.9h182.6v9.6H427zM427 255.1h153.7v9.6H427zM427 274.4h221v9.6H427zM436.6 303.2h192.2v76.9H436.6z"/><path fill="none" stroke="#3ad29f" stroke-dasharray="12" stroke-miterlimit="10" stroke-width="6" d="M138.8 610.6H33.1V34.2h624.5v48"/><circle cx="36.3" cy="36.3" r="36.3" fill="url(#j)" opacity=".5"/><circle cx="36.3" cy="36.3" r="34.2" fill="#69f0ae"/><path fill="#fff" d="M23.5 34.2l12.8 11.7 18.1-26.7 6.5 5.4-24.6 32-18.2-20.3 5.4-2.1z"/><rect width="277.2" height="429.6" x="306.4" y="401.2" fill="url(#k)" rx="17.2" ry="17.2" transform="rotate(-.1 -49044.9 102102.7)"/><path fill="url(#l)" d="M325.8 434h239.3v360.4H325.8z" transform="rotate(-.1 -49044.9 102102.7)"/><rect width="260.3" height="409.9" x="314.8" y="407.7" fill="#fff" rx="12.7" ry="12.7" transform="rotate(-.1 -49052 102102.7)"/><path fill="#e6e6e6" d="M191 370.2l224.8-.4.5 343.8-224.8.4z"/><ellipse cx="446.3" cy="799.8" fill="#dbdbdb" rx="9.3" ry="9.5" transform="translate(-142.9 -68.4)"/><ellipse cx="406.2" cy="424.2" fill="#dbdbdb" rx="3.1" ry="3.2" transform="rotate(-.1 -49087.7 101916.4)"/><rect width="40.1" height="3.2" x="421.7" y="422.3" fill="#dbdbdb" rx=".8" ry=".8" transform="rotate(-.1 -49051.9 101916.5)"/><path fill="url(#m)" d="M302.3 581.8h87.9v92.3h-87.9z"/><path fill="#5c6ac4" d="M306.1 585.8h80.3v84.3h-80.3z"/><path fill="url(#n)" d="M494.8 692.3l-1-.3v-2.7a6.3 6.3 0 0 0-.2-1 10.4 10.4 0 0 0 3.6-4.7 12.3 12.3 0 1 0-19.4 0 10.4 10.4 0 0 0 3.5 4.7 6.3 6.3 0 0 0 0 1v3a25.4 25.4 0 0 0-18.7 24.6v22.3h50.8v-22.4a25.4 25.4 0 0 0-18.6-24.5z" opacity=".5" transform="translate(-141.8 -69)"/><path fill="#3ad29f" d="M344.7 622.8h3.1a23 23 0 0 1 23 22.9v23h-49v-23a23 23 0 0 1 22.9-23z"/><rect width="12" height="15" x="339.8" y="614.8" fill="#be7c5e" rx="5.6" ry="5.6"/><path fill="#be7c5e" d="M343.4 629.3l2.3 3.3 2.4-3.3h-4.7z"/><path d="M331 641.1s-2.4 23.7-.9 25.2M360.4 641.1s2.4 23.7.9 25.2M345.8 622a10 10 0 0 0 5.9-2 6 6 0 0 0-6-5 6 6 0 0 0-5.9 5 10 10 0 0 0 6 2z" opacity=".1"/><circle cx="345.8" cy="608.1" r="11.8" fill="#444"/><circle cx="345.8" cy="611.8" r="10" fill="#be7c5e"/><path d="M337.7 601.9l2.5 3s11 1 12.3-1.5-7.2-4.3-7.2-4.3z" opacity=".1"/><path fill="#444" d="M337.7 601.6l2.5 3s11 1 12.3-1.5-7.2-4.3-7.2-4.3z"/><ellipse cx="335.7" cy="611.1" fill="#be7c5e" rx=".7" ry="1.3"/><ellipse cx="355.8" cy="611.1" fill="#be7c5e" rx=".7" ry="1.3"/><path fill="#444" d="M338 597a6 6 0 0 1 3-2 16 16 0 0 1 6.9-1.6 1.2 1.2 0 0 1 .7.2 2.2 2.2 0 0 1 .3.6c.8 1 2.8 1 3 2.2v1.3c.3 1 1.7.9 2.5 1.4a2.3 2.3 0 0 1 .2 3.2 6 6 0 0 1-3 1.8 11.8 11.8 0 0 1-6.5.5c-3-.8-10-2.7-7.2-7.5z"/><path fill="url(#o)" d="M212.3 580.8h87.9v92.3h-87.9z"/><path fill="#5c6ac4" d="M216.1 584.8h80.3v84.3h-80.3z"/><path fill="url(#p)" d="M404.8 691.3l-1-.3v-2.7a6.3 6.3 0 0 0-.2-1 10.4 10.4 0 0 0 3.6-4.7 12.3 12.3 0 1 0-19.4 0 10.4 10.4 0 0 0 3.5 4.7 6.3 6.3 0 0 0 0 1v3a25.4 25.4 0 0 0-18.7 24.6v22.3h50.8v-22.4a25.4 25.4 0 0 0-18.6-24.5z" opacity=".5" transform="translate(-141.8 -69)"/><path fill="#514abf" d="M254.7 621.8h3.1a23 23 0 0 1 23 22.9v23h-49v-23a23 23 0 0 1 22.9-23z"/><rect width="12" height="15" x="249.8" y="613.8" fill="#fda57d" rx="5.6" ry="5.6"/><path d="M241 640.1s-2.4 23.7-.9 25.2M270.4 640.1s2.4 23.7.9 25.2M255.8 621a10 10 0 0 0 5.9-2 6 6 0 0 0-6-5 6 6 0 0 0-5.9 5 10 10 0 0 0 6 2z" opacity=".1"/><circle cx="255.8" cy="607.1" r="11.8" fill="#444"/><circle cx="255.8" cy="610.8" r="10" fill="#fda57d"/><path d="M247.7 600.9l2.5 3s11 1 12.4-1.5-7.3-4.3-7.3-4.3z" opacity=".1"/><path fill="#444" d="M247.7 600.6l2.5 3s11 1 12.4-1.5-7.3-4.3-7.3-4.3z"/><ellipse cx="245.7" cy="610.1" fill="#fda57d" rx=".7" ry="1.3"/><ellipse cx="265.8" cy="610.1" fill="#fda57d" rx=".7" ry="1.3"/><path fill="#fff" d="M215.6 413.8h163.3v7.1H215.6zM215.6 428h163.3v7.1H215.6zM215.6 442.2h92.3v7.1h-92.3zM215.6 456.4h134.9v7.1H215.6zM215.6 470.6h113.6v7.1H215.6zM215.6 484.8h163.3v7.1H215.6zM222.7 506.1h142v56.8h-142z"/><path fill="#444" d="M248.8 607a16.3 16.3 0 0 0 1.3-2.8 6.9 6.9 0 0 1 12.2-.5c.8 1.5 1 3.2 2 4.6a1.2 1.2 0 0 0 1.7-.3 2.2 2.2 0 0 0 0-1.9c-.1-.6-.5-1.1-.7-1.8a14.3 14.3 0 0 0-1-2.8 6 6 0 0 0-2-1.7c-2.2-1.4-4.8-2.8-7.3-2a9.4 9.4 0 0 0-2.3 1.2l-3.2 2a10 10 0 0 0-2.7 2.2c-.7 1-2 3.6-1.4 4.8.7 1.3 2.8-.2 3.4-1z"/><path fill="#fff" d="M253.2 628v39.7h5.9l-.9-39.7h-5z"/><path fill="#fda57d" d="M252.3 627.5l3.4 4.9 3.5-4.9h-6.9z"/></svg>