<svg xmlns="http://www.w3.org/2000/svg" xmlns:xlink="http://www.w3.org/1999/xlink" width="1015.6" height="783.5" data-name="Layer 1"><defs><linearGradient id="a" x1="535.5" x2="535.5" y1="705.5" gradientUnits="userSpaceOnUse"><stop offset="0" stop-color="gray" stop-opacity=".3"/><stop offset=".5" stop-color="gray" stop-opacity=".1"/><stop offset="1" stop-color="gray" stop-opacity=".1"/></linearGradient><linearGradient id="b" x1="237.2" x2="237.2" y1="818.9" y2="359.6" xlink:href="#a"/></defs><path fill="#5c6ac4" d="M637 126.3c-42.2 26.8-97 25-145 11.1s-92.3-38.7-139-56.3a490.9 490.9 0 0 0-122.2-28.7C171 46.2 104.5 53.7 62.9 96.9c-46.3 48.2-42.8 135 7.3 179.2 25.5 22.5 58.9 33.5 88 51s56 46.8 53.5 80.6c-2.3 31.4-29 55.5-56.6 70.6-21.3 11.6-47.6 24.4-50.1 48.6-2.5 23.4 19.6 41.7 40.7 52.1a252.8 252.8 0 0 0 222-.9c24.5-12.3 47-28.7 72.6-38.3 67.3-25.2 141.5.2 212.8 9.5a469.3 469.3 0 0 0 181-12c35.3-9.3 70.8-23.7 95.6-50.6 17.8-19.3 29-43.8 39.4-68q16.8-38.6 32.2-77.9a180.7 180.7 0 0 0 13.9-48.5c2.8-30.4-9.3-60.5-26-86.2-39.3-61-105.6-103.8-177.4-114.7S664 101.8 608.3 148.3" opacity=".1"/><ellipse cx="135.7" cy="757" fill="#5c6ac4" opacity=".1" rx="135.7" ry="26.5"/><ellipse cx="539" cy="701.6" fill="#5c6ac4" opacity=".1" rx="284.5" ry="26.5"/><path fill="none" stroke="#535461" stroke-miterlimit="10" stroke-width="2" d="M732.1 512.6s40-70.7 100-91a123 123 0 0 0 62.3-46.6 207.2 207.2 0 0 0 18.4-33"/><path fill="#5c6ac4" d="M950.5 328.9c-6.8 6.6-38.7 13.5-38.7 13.5s7.8-31.6 14.7-38.3a17.3 17.3 0 0 1 24 24.8zM932.5 386.2c-9.4 1.8-39.9-9.7-39.9-9.7s23.8-22.3 33.1-24.2a17.3 17.3 0 1 1 6.8 33.9zM866.8 448.2c-9-3.2-29.5-28.5-29.5-28.5s31.8-7.3 40.8-4.2a17.3 17.3 0 1 1-11.3 32.7zM806.6 483.9c-9.4-1.6-34-23.1-34-23.1s30.2-12.6 39.6-11a17.3 17.3 0 1 1-5.6 34zM866 351.8c0 9.5 17.3 37.2 17.3 37.2s17.3-27.7 17.3-37.2a17.3 17.3 0 0 0-34.6 0zM796.1 394.4c2.9 9.1 27.6 30.3 27.6 30.3s8.2-31.5 5.4-40.6a17.3 17.3 0 1 0-33 10.3zM733.8 445.2c1.3 9.5 22.1 34.6 22.1 34.6s13.4-29.8 12.2-39.2a17.3 17.3 0 1 0-34.3 4.6z"/><path d="M950.5 328.9c-6.8 6.6-38.7 13.5-38.7 13.5s7.8-31.6 14.7-38.3a17.3 17.3 0 0 1 24 24.8zM932.5 386.2c-9.4 1.8-39.9-9.7-39.9-9.7s23.8-22.3 33.1-24.2a17.3 17.3 0 1 1 6.8 33.9zM866.8 448.2c-9-3.2-29.5-28.5-29.5-28.5s31.8-7.3 40.8-4.2a17.3 17.3 0 1 1-11.3 32.7zM806.6 483.9c-9.4-1.6-34-23.1-34-23.1s30.2-12.6 39.6-11a17.3 17.3 0 1 1-5.6 34zM866 351.8c0 9.5 17.3 37.2 17.3 37.2s17.3-27.7 17.3-37.2a17.3 17.3 0 0 0-34.6 0zM796.1 394.4c2.9 9.1 27.6 30.3 27.6 30.3s8.2-31.5 5.4-40.6a17.3 17.3 0 1 0-33 10.3zM733.8 445.2c1.3 9.5 22.1 34.6 22.1 34.6s13.4-29.8 12.2-39.2a17.3 17.3 0 1 0-34.3 4.6z" opacity=".3"/><path fill="none" stroke="#535461" stroke-miterlimit="10" stroke-width="2" d="M734.4 511.2s7.9-80.8 54.5-123.7a123 123 0 0 0 38-67.8 207 207 0 0 0 3.5-37.7"/><path fill="#5c6ac4" d="M859.6 254.8c-3.5 8.8-29.9 28-29.9 28s-5.7-32.1-2.1-41a17.3 17.3 0 0 1 32 12.9zM866.4 314.4c-7.8 5.5-40.4 7.3-40.4 7.3s12.7-30 20.5-35.5a17.3 17.3 0 0 1 19.9 28.2zM831.4 397.7c-9.5.8-38.5-14-38.5-14s26.1-19.6 35.6-20.4a17.3 17.3 0 1 1 3 34.4zM790.8 454.8c-9.2 2.4-40.3-7.4-40.3-7.4s22.4-23.7 31.7-26a17.3 17.3 0 0 1 8.6 33.4zM791.7 309.9c3.8 8.7 30.8 27 30.8 27s4.6-32.3.7-41a17.3 17.3 0 0 0-31.5 14zM745 377.2c6.3 7.2 37.5 16.6 37.5 16.6s-5.2-32.2-11.5-39.4a17.3 17.3 0 0 0-26 22.8zM708.7 448.9c5 8.1 34.2 22.6 34.2 22.6s.2-32.6-4.8-40.7a17.3 17.3 0 1 0-29.4 18z"/><path fill="url(#a)" d="M281.8 0v705.5h507.4V0H281.8z"/><path fill="#f6f7f9" d="M286.3 6.2h498.5v26.9H286.3z"/><path fill="#5c6ac4" d="M286.3 6.2h498.5v26.9H286.3z" opacity=".2"/><path fill="#f6f7f9" d="M286.3 33.1h498.5v666.2H286.3z"/><circle cx="299.4" cy="19.6" r="4.6" fill="#f6f7f9"/><circle cx="311.8" cy="19.6" r="4.6" fill="#f6f7f9"/><circle cx="324.1" cy="19.6" r="4.6" fill="#f6f7f9"/><path fill="#5c6ac4" d="M375.3 74.2h320.6v12.6H375.3z" opacity=".2"/><path fill="#5c6ac4" d="M653.2 74.2h42.6v12.6h-42.6z"/><path fill="#5c6ac4" d="M329.3 330.6H531v144.5H329.3zM329.3 143.2H531v144.5H329.3zM329.3 515.6H531v144.5H329.3zM540 330.6h201.7v144.5H540zM540 143.2h201.7v144.5H540zM540 515.6h201.7v144.5H540z" opacity=".2"/><path fill="#3acc6c" d="M931.6 634.5s7.1 9.3-3.3 23.4-19 26-15.6 34.8c0 0 15.8-26.2 28.6-26.6s4.4-15.9-9.7-31.6z"/><path d="M931.6 634.5a11.5 11.5 0 0 1 1.4 3c12.5 14.6 19.2 28.3 7.2 28.6-11.2.4-24.6 20.4-27.9 25.4a11 11 0 0 0 .4 1.2s15.8-26.2 28.6-26.6 4.4-15.9-9.7-31.6z" opacity=".1"/><path fill="#ffd037" d="M944.8 646.4c0 3.3-.3 6-.8 6s-.8-2.7-.8-6 .4-1.7 1-1.7.6-1.6.6 1.7z"/><path fill="#ffd037" d="M949.4 650.3c-2.9 1.6-5.4 2.5-5.6 2.1s2-2 4.8-3.5 1.7-.5 2 0 1.7-.1-1.2 1.4z"/><path fill="#3acc6c" d="M893.9 634.5s-7.1 9.3 3.3 23.4 19 26 15.5 34.8c0 0-15.7-26.2-28.5-26.6s-4.4-15.9 9.7-31.6z"/><path d="M893.9 634.5a11.5 11.5 0 0 0-1.5 3c-12.5 14.6-19.1 28.3-7.1 28.6 11.2.4 24.6 20.4 27.8 25.4a9.1 9.1 0 0 1-.4 1.2S897 666.5 884.2 666s-4.4-15.9 9.7-31.6z" opacity=".1"/><path fill="#ffd037" d="M880.6 646.4c0 3.3.4 6 .8 6s.9-2.7.9-6-.5-1.7-1-1.7-.7-1.6-.7 1.7z"/><path fill="#ffd037" d="M876 650.3c3 1.6 5.5 2.5 5.7 2.1s-2-2-4.8-3.5-1.8-.5-2 0-1.7-.1 1.2 1.4z"/><ellipse cx="912.7" cy="752.6" fill="#5c6ac4" opacity=".1" rx="74.6" ry="11.4"/><path fill="#65617d" d="M951.1 680.1l-.3 3-.5 4-.2 1.7-.5 4.2-.3 1.7-.5 4-5.7 46.9c-.5 4.2-7.3 7.4-15.5 7.4h-29.7c-8.2 0-15-3.2-15.6-7.4l-5.7-46.8-.5-4.1-.2-1.8-.5-4-.2-1.8-.5-4.1-.4-3c-.3-2.2 3.5-4.2 8.1-4.2h60.7c4.6 0 8.3 2 8 4.3z"/><path fill="#9d9cb5" d="M950.8 683l-.5 4.1h-75.1l-.5-4.1h76.1zM950.1 688.8l-.5 4.2h-73.7l-.5-4.2h74.7zM949.3 694.7l-.5 4.1h-72.2l-.5-4.1h73.2z"/><path fill="#5c6ac4" d="M591.6 171.1s-1.8-4.6 10.5-3.4 47.8 5 63.1 1.6 24.5-4.5 23.5 0-26.5 14.8-26.5 14.8l-33.1 3.5-24.5-4-13-7.7z"/><path d="M688.8 169.3c-1 4.6-26.5 14.8-26.5 14.8l-33.2 3.5-24.4-4-13.2-7.7.1-4.8a2 2 0 0 1 .7-2.2c1.2-1 3.8-1.8 9.9-1.2 12.3 1.1 47.7 5 63 1.6 12.5-2.8 20.9-4 23-2a2 2 0 0 1 .6 2z" opacity=".1"/><path fill="#5c6ac4" d="M708.5 238.5a143 143 0 0 0-58.8 26 11 11 0 0 0-4.7-5.5 16.5 16.5 0 0 0-4.8-2c-1.5-.4-3 .6-4.3 1.9a24.6 24.6 0 0 0-4 5.7c-23.2-16-58.6-26.2-58.6-26.2v-3.2l.2-2.2.5-2.6c3-15.2 14.9-50.1 14.9-50.1h13.4l26 5.4 29.2-1.8 29.5-6.1 3.8-.8c6.4 5 13.6 40 16.5 54.9l.8 4.6.4 2z"/><path fill="#5c6ac4" d="M578.2 232c.7-14.7 12.4-46.5 14.3-51.7H589s-12.6 37-15.1 51.4a.4.4 0 0 0 0 .1l-.2 1.1-.3 2.3v3.2s35.4 10.2 58.7 26.2a24.6 24.6 0 0 1 3.9-5.7c-9-8.1-42.7-21.3-57.7-27zM708.1 236.4l-.3-1.7-.5-2.9c-2.9-14.9-10.1-49.9-16.5-54.9l-3.8.8c2.3 6.3 17.3 47 16 54.9-25 5-50.4 21.2-58 26.4a11 11 0 0 1 4.7 5.6 143 143 0 0 1 58.8-26l-.4-2.2z"/><path d="M579 231c.8-14.6 12.5-46.4 14.5-51.6h-3.7s-12.6 37-15.1 51.4l-.2 1.2-.2 2.3v3.2s35.3 10.2 58.6 26.2a24.2 24.2 0 0 1 3.9-5.7c-9-8.1-42.7-21.3-57.7-27z" opacity=".1"/><path fill="#5c6ac4" d="M578.2 232c.7-14.7 12.4-46.5 14.3-51.7H589s-12.6 37-15.1 51.4a.4.4 0 0 0 0 .1l-.2 1.1-.3 2.3v3.2s35.4 10.2 58.7 26.2a24.6 24.6 0 0 1 3.9-5.7c-9-8.1-42.7-21.3-57.7-27z"/><path d="M707.2 235.5l-.3-1.7-.6-2.9c-2.8-14.9-10-50-16.4-54.9l-3.8.8c2.3 6.3 17.3 47 16 54.9-25 5-50.4 21.2-58 26.4a11 11 0 0 1 4.7 5.6 143 143 0 0 1 58.8-26l-.4-2.2z" opacity=".1"/><path fill="#5c6ac4" d="M708.1 236.4l-.3-1.7-.5-2.9c-2.9-14.9-10.1-49.9-16.5-54.9l-3.8.8c2.3 6.3 17.3 47 16 54.9-25 5-50.4 21.2-58 26.4a11 11 0 0 1 4.7 5.6 143 143 0 0 1 58.8-26l-.4-2.2z"/><path d="M586.9 198.3s23.2 14.6 28.6-6.7l5.1 1.3s1.7 23.7-35.3 10.2z" opacity=".1"/><path fill="#5c6ac4" d="M586.9 196.5s23.2 14.6 28.6-6.8l5.1 1.4s1.7 23.7-35.3 10.2z"/><path d="M659.9 192.3s3 17.4 34.7 9l-1-3.4s-21.8 9-29.7-6.6z" opacity=".1"/><path fill="#5c6ac4" d="M659.9 190.4s3 17.5 34.7 9l-1-3.3s-21.8 9-29.7-6.6z"/><path d="M638.7 192v36.5h5.6s7.8-2.8 7.6-19.2-1.3-20.8-1.3-20.8z" opacity=".1"/><path fill="#5c6ac4" d="M637.8 191.1v36.5h5.6s7.8-2.8 7.6-19.2-1.3-20.8-1.3-20.8z"/><path d="M690.8 178.8c-2.3 4.2-23.2 11.3-26.9 12.5l-.6.2-3.5.8c-6.7 1.4-21.7 4-33 1.7l-5-1-4-.9c-13-2.9-26.5-6.6-28.9-10 0 0 .7-10.8 2.8-10.6s26.7 10.6 26.7 10.6h.3l4.1.6a116 116 0 0 0 34.9-.6l2.1-.7c11.6-4.1 29-11.5 29-11.5s4.5 4.2 2 8.9z" opacity=".1"/><path d="M688.8 169.3c-1 4.6-26.5 14.8-26.5 14.8l-33.2 3.5-24.4-4-13.2-7.7.1-4.8a2 2 0 0 1 .7-2.2c4.4 1.3 26 10.4 26 10.4h.4a116 116 0 0 0 39 0l2-.7c10.5-3.7 25.7-10 28.5-11.2a2 2 0 0 1 .6 2z" opacity=".1"/><path fill="#5c6ac4" d="M690.8 177c-2.3 4.2-23.2 11.2-26.9 12.4l-.6.2-3.5.8c-6.7 1.4-21.7 4-33 1.7l-5-1-4-.8c-13-3-26.5-6.7-28.9-10 0 0 .7-10.9 2.8-10.6s26.7 10.6 26.7 10.6h.3l4.1.5a116 116 0 0 0 34.9-.5l2.1-.8c11.6-4 29-11.4 29-11.4s4.5 4.1 2 8.8z"/><circle cx="642.6" cy="188.5" r="3.7" opacity=".1"/><circle cx="642.6" cy="187.6" r="3.7" fill="#5c6ac4"/><path d="M623.7 180.8l-1 10.3-4-.9 1-10c.5.2 2 .4 4 .6z" opacity=".1"/><path fill="#5c6ac4" d="M622.8 180.8l-1 10.3-4-.9 1-10c.5.2 2 .4 4 .6z"/><path d="M663 189.4l-.5.2-3.6.8-3.4-9.8c.5 0 .9-.2 1.3-.3l2-.8z" opacity=".1"/><path fill="#5c6ac4" d="M664 189.4l-.6.2-3.5.8-3.5-9.8c.5 0 .9-.2 1.3-.3l2-.8z"/><g opacity=".5"><path fill="#5c6ac4" d="M406 162.8a26.4 26.4 0 0 1 13.3 3.7s12.2 1.4 18.8 0 10-6.7 11.3-5.2 1.3 15.3 1.3 15.3L445 192l-13 9.6-20.4-5.9-6.8-17.3z"/><path d="M450.7 176.6L445 192l-13 9.5-20.4-5.9-6.8-17.3 1.3-15.5h.3a27.1 27.1 0 0 1 13 3.7s12.1 1.5 18.8 0c6.3-1.4 9.6-6.1 11-5.3a.6.6 0 0 1 .2.1c1.3 1.5 1.3 15.3 1.3 15.3z" opacity=".1"/><path d="M450.7 176.6L445 192l-13 9.5-20.4-5.9-6.8-17.3 1.3-15.5h.3c1.1 4.9 6 20.3 21.4 21.4 16 1.1 20.5-17.8 21.4-23a.6.6 0 0 1 .2.1 70.1 70.1 0 0 1 1.3 15.3z" opacity=".1"/><path fill="#5c6ac4" d="M406 162.8s3.3 21.6 21.8 22.8 21.6-24.3 21.6-24.3 26.7 8.8 33 24.4 10.9 28.2 10.9 28.2-2 3.5-4.3 3.9-17.5 10.9-17.5 10.9-.2 29.9 1.5 31.7 1 9.8-3.9 9.4-39.5-8.1-69-1.7c0 0-12.4 4.5-12-2.7s1-35.5 1-35.5-18.7-8-19.8-8-3.9-1.5-1-6.3 6.7-21.3 6.7-21.3 7.4-23.5 31-31.5z"/><path d="M463.4 201.5s5.5 4.1 4.3 7.2-4.3-7.2-4.3-7.2zM471.5 205.4a10 10 0 0 0 0 5.6M475.2 215.6s.8 5-1.4 5.5M400 200.3s-10.4 9-6.9 12.5M393.5 222s-.2 9.4 2.7 10.2M423.2 253.6s7-4.8 8.8-4.6M430.2 258.6s7.6-5.4 9.6-5" opacity=".1"/></g><g opacity=".5"><path fill="#5c6ac4" d="M594.8 344.4s60.4 2.9 90.4 1.1l-.7 8-53.1 7-15.7-4.9z"/><path d="M685.2 345.5l-.6 8-53.1 7-15.8-4.9-21-11.2 3.5.2c13.1.5 60.3 2.4 86.2 1z" opacity=".1"/><path fill="#5c6ac4" d="M706.1 458.1c-11.6 7-52.1.3-52.1.3l-11.2-40-12.6 40.7c-17.8 6.3-54.5-3-54.5-3l14.3-88 2.5-12 2.3-11.7 22.6 6.8s6.8 4.7 35.2 3.3 32.6-9 32.6-9c1.2.4 2.4 4.8 3.6 10.3 1.8 8 3.5 18.3 5.6 21.6 3.6 5.7 11.7 80.7 11.7 80.7z"/><path d="M688.9 356.6c-25.3 14-47.1 13.6-47.1 13.6-5.4.6-49.3-13.3-49.3-13.3l2.3-11.6 22.6 6.8s6.8 4.6 35.2 3.3 32.6-9 32.6-9c1.3.4 2.5 4.8 3.7 10.3z" opacity=".1"/><path d="M685.2 345.5l-.6 8-53.1 7-15.8-4.9-21-11.2 3.5.2 19.2 5.8s6.8 4.6 35.2 3.3c22.3-1 29.7-6 31.8-8.1z" opacity=".1"/><path fill="#5c6ac4" d="M688.9 355.8c-25.3 13.9-47.1 13.5-47.1 13.5-5.4.6-49.3-13.3-49.3-13.3l2.3-11.6 22.6 6.8s6.8 4.7 35.2 3.3 32.6-9 32.6-9c1.3.4 2.5 4.8 3.7 10.3z"/><circle cx="646.1" cy="364.9" r="2.3" opacity=".1"/><circle cx="646.1" cy="364" r="2.3" fill="none" stroke="#5c6ac4" stroke-miterlimit="10"/><path d="M587 405.3s4 12.1 7 12-7-12-7-12zM584.4 417.2s2.5 7.3 5.1 8.5M584.4 424.8s4 5 6.3 6.3M691.8 379s3.7 5.7 0 6.9M693.5 388.2c-4.4-5.2-1.7 7-1.7 7s2.8-5.7 1.7-7zM695.7 394.5s-6.6 9.7-5.3 10.8M608.4 379.3c-8.1 0-16.6-3.7-17-3.9l.3-.8c.2 0 16.3 7 25 1.8 3.4-2 5.2-5.5 5.6-10.5h.9c-.4 5.4-2.4 9-6 11.3a17 17 0 0 1-8.8 2z" opacity=".1"/><path fill="#5c6ac4" d="M608.4 378.4c-8.1 0-16.6-3.7-17-3.9l.3-.8c.2 0 16.3 7.1 25 1.8 3.4-2 5.2-5.5 5.6-10.5l.9.1c-.4 5.3-2.4 9-6 11.2a17 17 0 0 1-8.8 2.1z"/><path d="M674.8 380a13.7 13.7 0 0 1-6-1.4c-6.6-3.1-7.6-10.9-7.7-11.2h.9s1 7.5 7.2 10.5c5.4 2.6 13.2 1 23-5l.4.7c-7 4.2-13 6.3-17.8 6.3z" opacity=".1"/><path fill="#5c6ac4" d="M674.8 379a13.7 13.7 0 0 1-6-1.2c-6.6-3.2-7.6-11-7.7-11.3h.9s1 7.5 7.2 10.5c5.4 2.6 13.2 1 23-5l.4.7c-7 4.3-13 6.4-17.8 6.4z"/></g><path fill="#5c6ac4" d="M411.1 345.8s11.4 15.8 19 14.3 8.5-3.3 15.4-14.3l5.6 12.9-6.6 16-7.8 10.2-16.7-2.7-5.3-18.1z"/><path d="M451.1 358.7l-6.6 16-7.8 10.1-16.7-2.6-5.3-18.1-3.6-18.3 2.6 3.2c3.8 4.6 11 12.2 16.5 11 7.6-1.5 8.4-3.1 15-13.8l.3-.5z" opacity=".1"/><path d="M451.1 358.7l-6.6 16-7.8 10.1-16.7-2.6-5.3-18.1-3.6-18.3 2.6 3.2c2.5 8 7.8 20.9 16.5 20.8 9.8-.1 13.8-16.4 15-23.6l.3-.4z" opacity=".1"/><path fill="#5c6ac4" d="M405.1 345.3s-3.8-.5-1.8 4.3 5.7 20.5 3.8 23.7-.9 12-8.9 13.7l2.3 9s.5 20-.5 23-1 19-.7 20.8.1 12.7-1.1 13.2-2 5.8 2 6.8 21 1.3 24.2 2.3 24.9 0 24.9 0 9.2-1.3 11.5-2 2.8-2.6 2-6.2-4.3-29.2-3.5-32.4.9-34.8.9-34.8-6-2-6-7.9-2.3-21.5 2.5-31.3c0 0-3.9-2.7-4.5-2.2s-6.4-1.2-6.4-1.2-3 26.7-15.6 26.9-18.1-27-18.1-27 .1-2.4-7 1.3z"/><path d="M423.3 431.1s2.6 6.4 6.9 7.3-7-7.3-7-7.3zM419.3 436s8.3 6.8 8 8.2M402.5 396s6.6 4.5 6.6 7.8M407 410s-1.9-6.4-3.1-7.8M403.9 412.5s2.8 5.6 3 7.1M457.6 401.3s-8.6 2.6-7.9 5.8M449.7 431.1s11.3-13 7.9-12.7-8 12.8-8 12.8z" opacity=".1"/><g opacity=".1"><path d="M454.2 378.8c0-2.7-.5-7.5-.6-12.8 0 6.1.6 11.8.6 14.8 0 5.8 5.7 7.8 6 7.9v-2s-6-2-6-7.9zM462.8 456a15.6 15.6 0 0 1 .2 1.5 10 10 0 0 0-.2-3.6c-.7-3-3.4-22.2-3.6-29.8-.3 5.2 2.9 28.5 3.6 31.8zM399.1 436c0-5.5.3-13 1-15a87 87 0 0 0 0-2c-.7 2.1-1 11.5-1 17zM405.1 347.3c7-3.7 7-1.2 7-1.2s5.5 27 18 26.9 15.7-27 15.7-27 5.8 1.8 6.4 1.3 2.7 1 3.8 1.7l.7-1.5s-3.8-2.7-4.5-2.2-6.4-1.2-6.4-1.2-3 26.7-15.6 26.9-18.1-27-18.1-27 .1-2.4-7 1.3c0 0-3-.4-2.2 3 .5-1.2 2.2-1 2.2-1zM398.2 455c1-.4 1.3-7.2 1.2-11 0 3.8-.4 8.7-1.2 9s-1.2 2-.9 3.6c.2-.8.5-1.5.9-1.6zM407.1 375.3a8.6 8.6 0 0 0 .5-4.1 5.3 5.3 0 0 1-.5 2.1c-1.8 3.2-1 12-9 13.7l.6 1.9c7.5-2 6.6-10.4 8.4-13.6z"/></g><path fill="#5c6ac4" d="M451.6 533.4c-3.8 6.9-42.2 0-42.2 0l.1-.7.8-5.3h40.4l.8 5.3z"/><path d="M451.6 533.4c-3.8 6.9-42.2 0-42.2 0l.1-.7c1.8 0 29.6-.6 42 0z" opacity=".1"/><path fill="#5c6ac4" d="M409.4 533.4s-6.9 1.7-17.5 30.6-14.5 66.3-14.5 66.3-6 10.1 19.6 10.8c0 0-2 6.7 12.4 5.7s12.4-1 12.4-1 9.3-5.9 13.4-4.8 6.7 1.3 11.2 5.1 18.7 2.2 19-.7a27 27 0 0 0 0-4.3s21.8 1.4 17.6-14.4-7.5-41.8-7.5-41.8-11.2-50.8-24-51.5-42 0-42 0z"/><path d="M396.7 641.2l8-87.8.8.1-8.1 87.7zM421.5 645.7l.3-92.4h.7l-.3 92.4zM442.7 553.4h.7L447 646h-.7zM465 641.1c-1.2-52.8-10.2-89-10.3-89.3l.6-.2c.1.4 9.2 36.6 10.4 89.5zM410.6 538.6s-1.2.7 0 4M414 538.6s-3.2 2 0 5.5M444.7 538.6s4.4 4.3 3.4 5.5M448.3 537.5s.7 5.2 3.3 6.6" opacity=".1"/><g opacity=".5"><path fill="#5c6ac4" d="M630.9 529.3s16.9-6.7 24.2 1.5-5 18.2-5 18.2l-5.2 10.2-12.1-1.3-2.9-14.2z"/><path d="M650 548.9l-5 10.3-12.2-1.3-2.9-14.2 1-14.4.3-.1c2.1-.8 16.6-5.8 23.5 1.1a5.3 5.3 0 0 1 .4.4c7.3 8.2-5 18.2-5 18.2z" opacity=".1"/><path d="M650 548.9l-5 10.3-12.2-1.3-2.9-14.2 1-14.4.3-.1c2 11.4 7.7 16.3 8.6 17h.1l3.5-.2c6.6-3.7 10.2-12.4 11.3-15.7a5.3 5.3 0 0 1 .4.4c7.3 8.2-5 18.2-5 18.2z" opacity=".1"/><path fill="#5c6ac4" d="M679.6 588.1s-3.8 47.4-2.8 53.1-2.1 6.2-2.1 6.2-13.5 3-16 1-6.9-2.4-6.9-2.4-10 2.3-14.4.6-12-1-12-1-5.6 3.4-7.2 2.7-3.6-.4-8.2-1.7-7.1-2.5-4.7-10.3.3-32.8.1-35.8-1.5-10.3-3.5-19 3.4-6.9 3.4-6.9c12.7-6.6 7.4-19.5 5.4-25.2s1.2-6 2.8-6 7.5-5.1 7.5-5.1l2.5-2.2 7.4-6.7c1.9 12.5 7.9 17.8 8.9 18.5l.1.1 3.4-.3c8.3-4.5 11.8-17 11.8-17 1 1.7 3.2 3.7 5.7 5.5a98 98 0 0 0 10.2 6.3c6 3.6 1.5 7.2 1.5 7.2-7.3 24.8 3 26 3 26 7.6 1 4 12.4 4 12.4z"/><path d="M623.3 543.5s-2.1 1.1-2.1 2.4M624.6 545.9s-2.9 3-2.4 3.9M624.6 549.8s-2.1 2.3-1.3 3.6M639 549.6l-9 8.7c-.4-9.6-5-17.3-7.4-20.6l7.5-6.7c1.8 12.6 7.8 17.9 8.8 18.6z" opacity=".1"/><path fill="#5c6ac4" d="M639.8 548l-9 8.6c-.3-9.6-5-17.4-7.3-20.6l7.4-6.7c1.9 12.6 7.9 17.9 8.9 18.6z"/><path d="M661.7 537.9c-3.6 5.6-10.3 20.4-10.3 20.4l-7.2-8.8c8.3-4.6 11.7-17 11.7-17 1 1.6 3.3 3.6 5.8 5.4z" opacity=".1"/><path fill="#5c6ac4" d="M660.8 536.2a245.7 245.7 0 0 0-10.3 20.4l-7.1-8.8c8.3-4.6 11.7-17 11.7-17 1 1.6 3.2 3.6 5.7 5.4z"/><path d="M655.5 628s-1.5 13-2.4 13.6M668.1 630.2s1.7 9.3 1 11.4M631.5 630.8s-1.6 8.7 0 9.7M622.2 629.5s-1.3 10.3-1 12.2M670.3 579.2s-4 3.2-3.8 4M673.1 581.3s-7.6 6.4-3.8 5.7 3.8-5.8 3.8-5.8z" opacity=".1"/></g><path fill="url(#b)" d="M341 455v-.1l-.6-.4h.1a1.8 1.8 0 0 0-2.3.6l-.2.3-12.2 17.5-2.1 3.1c-6.4-2-16.8 6.2-22.1 10.8l-1 .9-.6-1.6c-.3 2.9-10.4 7.2-12.7 8.7a8.5 8.5 0 0 1-3.5 1.2c.3-10.9-8.1-22.3-8.1-22.3L255 447.6a23 23 0 0 1 2.1-14l.6-1a22.7 22.7 0 0 0-1.2 7c0 1.7 1.7 10.3 4 10a1.3 1.3 0 0 0 1.2-.6c1.8-2.2 2-5.8 1.9-9.2a18.8 18.8 0 0 1-.4 3c.2-2.8-.1-5.8-.1-8v-2.4h.3v0h.2a27.6 27.6 0 0 0 12.6-5.8 6.7 6.7 0 0 0 4.7-2.3 4.6 4.6 0 0 1-.9 4.3c2.8-.1 5.1-2.2 6.2-4.8a16.7 16.7 0 0 0 .7-8 55.6 55.6 0 0 1-.5-8 30 30 0 0 0 .2-4.5 8.5 8.5 0 0 0-.2-1.3 2 2 0 0 0 1.5-.6c1.1-.9 1.5-2.6 1.8-4a33.4 33.4 0 0 0 1-9.2c0 1-.2 1.9-.3 2.8.3-3.6-.2-7-2.6-9.7-1.7-1.8-4-2.8-6.2-3.9a4.5 4.5 0 0 1-2-1.4 5.8 5.8 0 0 1-.6-2.5c-.7-5.2-5.7-9-10.6-11-6.4-2.7-14-4-20-.6-3 1.5-5.4 4-8 6-3.5 2.6-7.4 4.4-11 6.7s-7 5-8.7 9c-2.7 6-.7 12.7-.4 19.2.6 10.3-3.7 21-12 27a10.8 10.8 0 0 0-2.7 2.3 2.9 2.9 0 0 0-.2 3.3c.4.5 1.1.9 1.6 1.4 1 1 .8 2.7.4 4.1a25.8 25.8 0 0 1-7 11.9c.1 1 1.4 1.4 2.5 1.6a58.3 58.3 0 0 0 8.6.6h1.2l-.4 1c-1.6 4.2-3.6 10.4-3 14.3 1 6 4.3 33.7 2.7 38.6s2.6 40.1 2.6 40.1l1.5 6.8c-2.5 5.8-5.3 12.3-6.7 14.9-2.9 5.1-1.5 31.6 8.3 43.4 0 0 4 5.7 3 7.8s.2 5.7.2 5.7l1.5 34.3a88.9 88.9 0 0 1-.7 10.5 64.7 64.7 0 0 1-13.6 14c-4.7 1.9-39.7 44.3-39.7 44.3l.8 1.3-1 1.2-6.7 7.7-.5.7c-1.3-.3-9.7-1.8-16.3-2.3h-.7v-.1a24.9 24.9 0 0 0-7 .2 2.3 2.3 0 0 0-1.1.6c-2.3 2.8-3.5 46.4-3.5 46.4s2.4 21.9 10 23a4 4 0 0 0 1.2.3h.3c5.4-.4 7.9-3.5 9-5.6a8.7 8.7 0 0 0 .8-2s-1-4 1.4-9.3L162 778s8-8.4 6.6-12.5l.7-1a251.8 251.8 0 0 1 15-19.5 24.6 24.6 0 0 0 5.6 1.6s7.5-3 10.3-9.6c1.2-2.8 5.9-7.7 10.9-12.5l-.2 1.3-.2 41.7a29.8 29.8 0 0 0 5.2 2.9v1a134 134 0 0 1-1.1 17.8l-.2.9c-.6-.5-1.1-.6-1.5-.3a46 46 0 0 0-2.6 16.1v.5c-.2 4.6-2.8 11.2 5 11.6l44.8.8a30.1 30.1 0 0 0 20-7c4.3-3.8 7-8.2 1-11.4l-1-.6-13-2-22.3-11.3s-.1-6.9-2.8-5.7a7.5 7.5 0 0 0-2.2.9l-.4-.8a25.6 25.6 0 0 1-2.8-11.6v-1.1a22 22 0 0 0 2-1.9s-.3-15.6 1.5-18.5 7.2-32.8 7.2-32.8.1-5.5 3.6-8.8 2.3-12.8 2.3-12.8 4.9-2.6 6.5-11 6.6-27 6.6-27 10.5-27.5 9.8-44.8 1-26.3 1-26.3l2.2-40.2v-.7l1.5 1.2v-.4l.5.4s1-18.2.7-25.5c6.1-2 15.4-5.5 16-7.2a60.3 60.3 0 0 1 11.3-10.8 1.7 1.7 0 0 1-.7-.2l1-.5c7-3.7 19.7-14.5 17.5-21l14-20.1a3.4 3.4 0 0 0-.3-4.3z" transform="translate(-92.2 -58.2)"/><path fill="#ecb4b6" d="M216.2 445.3a9.1 9.1 0 0 1-3.3 1.3c-4.4 0-8-11.7-8-11.7l3.2-3c5.8-5.3 18.1-14.9 23.9-9.5 6.5 6-8.2 18.8-15.8 22.9zM149.8 727.4l-16.2 17.4s-14.9.2-12-8a30 30 0 0 0 1.3-5.5 134.7 134.7 0 0 0 1-17.6V707s23.5-10.3 21 .4a20.1 20.1 0 0 0-.4 4.1 25.5 25.5 0 0 0 2.7 11.5 26 26 0 0 0 2.6 4.3z"/><path d="M149.8 727.4l-16.2 17.4s-14.9.2-12-8a30 30 0 0 0 1.3-5.5c2.1 1.6 5.2 6.5 5.2 6.5s10.3 3 13.1-6c1.6-5 4-7.5 6-8.7a26 26 0 0 0 2.6 4.3z" opacity=".1"/><path fill="#c17174" d="M187.2 753.6a29.3 29.3 0 0 1-19.6 7c-13.3-.2-38.2-.5-44-.8-7.7-.3-5.1-7-4.9-11.5v-.4c.1-4.6 1-14.4 2.6-16s6.8 7 6.8 7 10.3 3 13.1-6 8.6-10 8.6-10c2.6-1 2.7 5.7 2.7 5.7l21.8 11.2 12.8 2 1.1.6c5.8 3.2 3.2 7.6-1 11.2z"/><circle cx="147" cy="735.4" r=".9" fill="#fff" opacity=".3"/><circle cx="155.8" cy="739.8" r=".9" fill="#fff" opacity=".3"/><circle cx="160.3" cy="741.8" r=".9" fill="#fff" opacity=".3"/><circle cx="169.8" cy="745.4" r=".9" fill="#fff" opacity=".3"/><circle cx="165" cy="743.9" r=".9" fill="#fff" opacity=".3"/><path fill="#c17174" d="M187.2 753.6a29.3 29.3 0 0 1-19.6 7c-13.3-.2-38.2-.5-44-.8-7.7-.3-5.1-7-4.9-11.5l48.5 3s19.9-3 21-8.9c5.8 3.2 3.2 7.6-1 11.2z"/><path fill="#fff" d="M187.2 753.6a29.3 29.3 0 0 1-19.6 7c-13.3-.2-38.2-.5-44-.8-7.7-.3-5.1-7-4.9-11.5l48.5 3s19.9-3 21-8.9c5.8 3.2 3.2 7.6-1 11.2z" opacity=".3"/><path fill="#ecb4b6" d="M97 683.7a33.5 33.5 0 0 0-4.9 4.9c-4.8 5.5-10.7 14-13.7 18.1l-1.8 2.7-6.5-1s-7-10.6-6.8-10.8l5.5-11.7 2-2.4 6.7-7.7 3-3.5s22.3 7.2 16.5 11.4z"/><path d="M78.4 706.8l-1.8 2.6-6.5-1s-7-10.5-6.8-10.8l5.5-11.7 2-2.4.8.1h1.6c-5.8 6 .4 19.2.4 19.2s2.7.3 4.8 4z" opacity=".1"/><path fill="#c17174" d="M71.2 720.2l-6.6 14.6c-2.3 5.3-1.5 9.2-1.5 9.2a9 9 0 0 1-.7 2 10.1 10.1 0 0 1-8.8 5.5h-.4c-7.8-.2-10.3-22.9-10.3-22.9s1.2-43.2 3.4-46a2.1 2.1 0 0 1 1.2-.6 24 24 0 0 1 6.9-.2c7 .5 16.1 2.3 16.1 2.3h1.7c-5.8 6 .4 19.2.4 19.2s2.7.2 4.9 4.1-6.3 12.8-6.3 12.8z"/><circle cx="61.8" cy="707.4" r=".9" fill="#fff" opacity=".3"/><circle cx="61.3" cy="714.8" r=".9" fill="#fff" opacity=".3"/><path fill="#c17174" d="M61.8 745.8a10.1 10.1 0 0 1-8.8 5.5h-.4c-7.8-.2-10.3-22.9-10.3-22.9s1.2-43.2 3.4-46a2.1 2.1 0 0 1 1.1-.6 24 24 0 0 1 7-.2c-.2 7.8-.6 32.4 0 34.8s4.9 22.9 8 29.4z"/><path fill="#fff" d="M61.8 745.8a10.1 10.1 0 0 1-8.8 5.5h-.4c-7.8-.2-10.3-22.9-10.3-22.9s1.2-43.2 3.4-46a2.1 2.1 0 0 1 1.1-.6 24 24 0 0 1 7-.2c-.2 7.8-.6 32.4 0 34.8s4.9 22.9 8 29.4z" opacity=".3"/><path fill="#c17174" d="M52.6 751.4c-7.8-.2-10.3-23-10.3-23s1.2-43.2 3.4-46a2.1 2.1 0 0 1 1.1-.5c1.7 2.4 3.1 7.8 1.8 19.7-2.4 22.5.5 23.9.5 23.9s3.7 19.1 3.5 25.9z"/><path d="M52.6 751.4c-7.8-.2-10.3-23-10.3-23s1.2-43.2 3.4-46a2.1 2.1 0 0 1 1.1-.5c1.7 2.4 3.1 7.8 1.8 19.7-2.4 22.5.5 23.9.5 23.9s3.7 19.1 3.5 25.9zM216.2 445.3a9.1 9.1 0 0 1-3.3 1.3c-4.4 0-8-11.7-8-11.7l3.2-3c1.4 3.2 5.4 11.8 8.1 13.4z" opacity=".1"/><path fill="#ff748e" d="M188.2 441s3.6.3 5.9-1.3 12.2-5.7 12.5-8.6c0 0 5.9 14.4 9.2 15 0 0-10.3 8-11 10.6s-20.9 8.9-20.9 8.9z"/><path d="M188.2 441s3.6.3 5.9-1.3 12.2-5.7 12.5-8.6c0 0 5.9 14.4 9.2 15 0 0-10.3 8-11 10.6s-20.9 8.9-20.9 8.9zM97 683.7a33.5 33.5 0 0 0-4.9 4.9 34.7 34.7 0 0 1-14.6-12.8l3-3.5s22.3 7.2 16.5 11.4z" opacity=".1"/><path fill="#5e5a6b" d="M133.7 610.8s-12.6 16.8-17.2 18.7-38.9 43.9-38.9 43.9 7.4 13.5 21 15.7c0 0 7.3-2.9 10-9.4s24.4-25 24.4-25z"/><path d="M133.7 610.8s-12.6 16.8-17.2 18.7-38.9 43.9-38.9 43.9 7.4 13.5 21 15.7c0 0 7.3-2.9 10-9.4s24.4-25 24.4-25z" opacity=".1"/><path d="M95.6 667a54.8 54.8 0 0 0 11.4 0c6.8-.6 1.7 3.5-11.4 0zM92.5 671.4s9 5.1 12.4 2.6-3.3 2.4-12.4-2.6zM145 707.5a20.1 20.1 0 0 0-.5 4.1c-7 6.3-15.3 4.4-20.5 2l-.1-6.5s23.5-10.3 21 .4z" opacity=".1"/><path fill="#5e5a6b" d="M186.7 483.8l-.3 4.8-2.1 39.8s-1.8 9-1 26-9.7 44.4-9.7 44.4-5 18.3-6.5 26.7-6.3 11-6.3 11 1.2 9.4-2.3 12.7-3.6 8.7-3.6 8.7-5.3 29.6-7 32.5-1.5 18.3-1.5 18.3C135.3 722 119 710 119 710l.1-41.3s4.7-38 8-43.4 3.5-19.9 3.5-19.9l-1.5-34s-1.2-3.6-.2-5.6-3-7.8-3-7.8c-9.5-11.6-11-37.9-8.1-43s11.1-25.7 11.1-25.7l11.5-6.7 20.7.6z"/><path d="M137.9 686s2.7 9.3 4.9 10.3-5-10.4-5-10.4zM141.6 654.7s7 5.5 10 5.5-10-5.5-10-5.5z" opacity=".1"/><path fill="#ecb4b6" d="M184 422.5v11.3l-7.6-3.2-7.4-3.2-16.2-16s-12.8-8.3-19.7-15.9c-4-4.3-5.9-8.4-2.4-10.6a21.5 21.5 0 0 0 4.4-3.9 73.8 73.8 0 0 0 9-13.2l.3-.6c3.3-6 5.6-11.3 5.6-11.3a67.6 67.6 0 0 0 16.8 8.3c3.4 2.8 5 6 2 9.2a24 24 0 0 0-2.3 2.6 21.7 21.7 0 0 0-1.4 2.2l-.5 1a23 23 0 0 0-2 13.7z"/><path fill="#464353" d="M182.5 341.8c.4.6 1 1.2 1.3 2a9.4 9.4 0 0 1 .6 4.7 27.3 27.3 0 0 0 .5 7.7c.5 2.2 1.5 4.4 1.6 6.7.1 3.3-1.6 6.3-3.2 9.2a6.6 6.6 0 0 0 4.7-2.2 4.6 4.6 0 0 1-.9 4.2c2.7-.1 5-2.2 6-4.7a16.5 16.5 0 0 0 .8-8 54.6 54.6 0 0 1-.6-8 29.4 29.4 0 0 0 .2-4.5c-.2-2.9-2-5.4-3.7-7.8l-3.5-4.7a2.5 2.5 0 0 0-1-1c-3.3-1.4-3.7 4.7-2.8 6.4z"/><path d="M168.8 373.4a24 24 0 0 0-2.2 2.6 21.7 21.7 0 0 0-1.4 2.2l-.5 1a27 27 0 0 1-20.2-11c-.2 0-.3-.2-.4-.4l.4-.6c3.3-6.1 5.5-11.3 5.5-11.3a67.6 67.6 0 0 0 16.8 8.3c3.4 2.8 5 6 2 9.2z" opacity=".1"/><path fill="#ecb4b6" d="M193.2 351.2a27 27 0 0 1-22.2 26.6 27.3 27.3 0 0 1-4.9.4h-1a27 27 0 1 1 28-27z"/><path d="M169.7 418s13.6 7.6 10.1 1.2l-17.7-26.3 20.1 26s12.9 17.6 5.8 29.8c0 0-1 10 .2 12.5s-.3 28-.3 28-4.8-4.5-7.4-3.6-20.7 2.3-20.7 2.3z" opacity=".1"/><path d="M186.7 483.8l-.3 4.8c-1.6-1.2-3.9-2.5-5.4-2-2.6.8-20.7 2.4-20.7 2.4l.8-6z" opacity=".1"/><path fill="#464353" d="M170.2 418s13.6 7.6 10.1 1.2l-17.7-26.3 20.1 26s12.9 17.6 5.9 29.8c0 0-1 10 .1 12.5s-.3 28-.3 28-4.8-4.5-7.4-3.6-20.7 2.4-20.7 2.4z"/><path d="M177.5 431.1c-.8 8.3-4.2 18-4.2 18s-2.4 24.4-5.5 31.7-1.7 17.1-3.5 35.5a23.2 23.2 0 0 1-5.6 14.2 21 21 0 0 1-16.8 5.8l-1.2-.1c-8.6-.9-16.8-42.2-16.8-42.2s-4-35.2-2.4-40-1.5-32.2-2.6-38.2c-.6-3.8 1.3-10 2.9-14l1.6-4s2.9-9.4 7.7-14.2a7 7 0 0 1 5-2 12.7 12.7 0 0 1 6.4 2 1.8 1.8 0 0 1 .3 0s31.2 32 34 39.3c.9 2.1 1 5 .7 8.2z" opacity=".1"/><path fill="#ff748e" d="M176.5 430.6c-.8 8.2-4.2 18-4.2 18s-2.4 24.4-5.5 31.6-1.7 17.2-3.5 35.5a23.3 23.3 0 0 1-5.6 14.2c-4.7 5-11.4 6.1-16.8 5.8h-1.2c-8.6-1-16.8-42.3-16.8-42.3s-4-35.1-2.4-40-1.6-32.2-2.6-38.2c-.7-3.8 1.3-10 2.8-14l1.7-4s2.9-9.2 7.7-14a7 7 0 0 1 5-2.2 12.5 12.5 0 0 1 6.4 2l.2.2S173 415 176 422.4c.8 2 .9 5 .5 8.2z"/><path d="M141.5 556.1s-7.1 6.3-9.5 6 9.5-6 9.5-6zM143.4 562.2s-7.5 3.5-9.7 4 6.8-4.9 9.7-4zM172.2 467.5s11 .2 12.8 3.6-9.2-5-12.8-3.6zM170.7 473.6s8.5 1.8 11 3.8-11-3.8-11-3.8zM156.4 452.6s-1 34.9-4.8 39.4 4.8-39.4 4.8-39.4zM146.9 551.1s-7.1 30.8 7.1 32.7 9.9-35 9.9-35z" opacity=".1"/><path fill="#ecb4b6" d="M146.4 550.6s-7.1 30.8 7.1 32.7 9.8-35 9.8-35z"/><path d="M193 348.2a10.4 10.4 0 0 1-1-1.8c-1.9-4-6.8-2-10.3-.2l-2 2.5a15.3 15.3 0 0 0-2 3.3 25.4 25.4 0 0 0-1 3c-.5 1.8-1.2 3.4-1.9 5.1a59.3 59.3 0 0 0-3.7 17.7 27.3 27.3 0 0 1-5 .4v-.1l.4-2a35.7 35.7 0 0 0 .3-11.9v-.2l-.4-2.7-1 1.9c-2.1 4-4.4 8-8.5 9.7a17.4 17.4 0 0 1-5.1 1.2 29.4 29.4 0 0 0-6.5 1 4 4 0 0 0-1.8 1.2 5.5 5.5 0 0 0-1 2.8 22.7 22.7 0 0 1-1 4 34.3 34.3 0 0 1-8.4 12.4l-.9 1a17.4 17.4 0 0 1-5.6 3.8 17 17 0 0 1-5.8.9c.8-2.4 1.6-4 1.6-4s2.9-9.2 7.7-14a7 7 0 0 1 5-2.2 75.5 75.5 0 0 0 9.3-13.7 27 27 0 1 1 48.6-19z" opacity=".1"/><path fill="#464353" d="M194.7 327.2c-1.6-1.8-3.8-2.9-6-3.9a4.6 4.6 0 0 1-2-1.4 6 6 0 0 1-.5-2.5c-.8-5.2-5.6-8.8-10.5-11-6.2-2.6-13.7-3.8-19.6-.6-3 1.6-5.2 4-7.8 6-3.4 2.6-7.2 4.4-10.7 6.6s-7 5-8.6 8.9c-2.6 5.9-.7 12.7-.3 19.1a31.4 31.4 0 0 1-11.9 26.8 10.3 10.3 0 0 0-2.6 2.2 2.9 2.9 0 0 0-.2 3.3c.4.5 1.1.9 1.6 1.4.9 1 .7 2.7.3 4a25.5 25.5 0 0 1-6.8 11.8c.1 1 1.4 1.5 2.5 1.6a56.1 56.1 0 0 0 8.3.6 14.1 14.1 0 0 0 11.8-4.7c5-4.7 9.2-10.6 10.3-17.3a5.7 5.7 0 0 1 1-2.9 4.2 4.2 0 0 1 1.8-1c3.8-1.4 8-.7 11.6-2.3 4.7-2 7-7 9.5-11.6 0 .9.2 1.8.4 2.6a35.6 35.6 0 0 1-.7 14.2c-.7 2.6-1.7 5.2-1.6 7.9 0 2 2 12.4 4.7 9.3s1.7-10 1.7-14a59.5 59.5 0 0 1 4-21.2l1.8-5.1a27.3 27.3 0 0 1 1-3 15.7 15.7 0 0 1 2.1-3.4l2-2.4c3.5-1.9 8.3-3.8 10.2.1.7 1.5 1.1 3.2 3 1.7 1.1-.8 1.5-2.5 1.8-3.8 1.2-5.5 2.2-11.9-1.6-16z"/><path d="M158.5 421.6c-.7-18.5-26.6-22.3-32.6-4.9a2.5 2.5 0 0 0-.1.4c-4 11.8-2.2 41.8-2.2 41.8s.5 20.1 2.4 26.8 7.2 25.9 7.2 29 4.9 15 7 15.8 3 7.5 3.6 8.7 2 16.8 2 16.8 19.4-1.2 19.7-4.3-4.3-18.1-4.3-18.1-3.4-6.2-3.8-11.2-3.2-7.2-2.6-10.6-1.6-5.2-1.6-7.4-1.5-8.2-1.5-8.2-3.3-2.6-2.8-5.7-4.6-9.2-3.2-11.5 1.7-7.7 1.7-7.7 1.7-24.7 3-31.4 8.1-17.5 8.1-17.5v-.8z" opacity=".1"/><path d="M157.7 530c-4.7 5-11.4 6-16.8 5.7-.6-2.3-1.5-5.2-2.8-5.8-2-.8-7-12.6-7-15.7s-5.3-22.3-7.2-29-2.4-26.8-2.4-26.8-1.7-30 2.2-41.8l.2-.4c6-17.5 31.8-13.6 32.6 4.8v.9s-7 10.8-8.3 17.5-2.9 31.4-2.9 31.4-.3 5.5-1.7 7.7 3.8 8.4 3.3 11.5 2.7 5.6 2.7 5.6 1.6 6 1.6 8.3 2 4 1.5 7.4 2.2 5.6 2.7 10.6a27.7 27.7 0 0 0 2.3 8z" opacity=".1"/><path fill="#ff748e" d="M157.5 421c-.7-18.4-26.6-22.2-32.6-4.8l-.1.4c-4 11.8-2.3 41.8-2.3 41.8s.5 20.1 2.4 26.8 7.2 25.9 7.2 29 5 15 7 15.8 3.2 7.5 3.7 8.7 2 16.8 2 16.8 19.3-1.2 19.7-4.3-4.3-18.1-4.3-18.1-3.4-6.2-3.9-11.2-3.1-7.2-2.6-10.6-1.6-5.2-1.6-7.4-1.5-8.2-1.5-8.2-3.3-2.6-2.8-5.7-4.6-9.2-3.2-11.5 1.7-7.7 1.7-7.7 1.7-24.7 3-31.4 8.1-17.5 8.1-17.5v-.8z"/><path d="M125.7 468.6c.5-.6 10.2-11.4 13.3-7.5s-13.3 7.5-13.3 7.5zM126.6 477c.3-.5 9.7-.9 12-6s-12 6-12 6z" opacity=".1"/><g opacity=".1"><path d="M115.9 382a2.6 2.6 0 0 1 .5 1 4 4 0 0 0-.5-3.5c-.5-.5-1.2-.8-1.6-1.4v-.1a2.6 2.6 0 0 0 0 2.7l1.6 1.4zM129 348.8v-3c-.2-3.5-.9-7-1-10.6-.3 4.3.7 8.9 1 13.2v.4zM169 391.7c-2.3 2.8-4.2-5.2-4.6-8.4a13.2 13.2 0 0 0-.1 1.7c0 2 2 12.4 4.7 9.3 1.8-2.1 2-5.8 2-9-.2 2.5-.6 4.8-2 6.4zM166.5 363a34.4 34.4 0 0 1 .4 4 35.1 35.1 0 0 0-.4-6.6c0-1-.3-1.8-.3-2.7-2.5 4.7-4.8 9.6-9.5 11.6-3.6 1.6-7.8 1-11.6 2.2a4 4 0 0 0-1.8 1.2 5.6 5.6 0 0 0-1 2.8 32 32 0 0 1-10.3 17.3 14.1 14.1 0 0 1-11.8 4.8 57.3 57.3 0 0 1-8.4-.7 6.3 6.3 0 0 1-1.2-.3l-1.2 1.3c.1 1 1.4 1.5 2.4 1.6a56 56 0 0 0 8.4.6 14.1 14.1 0 0 0 11.8-4.7 32 32 0 0 0 10.3-17.3 5.6 5.6 0 0 1 1-2.9 4.1 4.1 0 0 1 1.8-1c3.8-1.4 8-.7 11.6-2.3 4.7-2 7-7 9.5-11.6 0 .9.2 1.8.3 2.6zM196.6 340.6c-.3 1.3-.7 3-1.8 3.9-1.9 1.4-2.3-.2-3-1.7-1.9-4-6.8-2-10.3-.2l-2 2.5a15.3 15.3 0 0 0-2 3.3 23.6 23.6 0 0 0-1 3c-.5 1.8-1.2 3.4-1.9 5.1a59.9 59.9 0 0 0-3.9 21.3v1a59.7 59.7 0 0 1 4-19.7l1.8-5.1a23.6 23.6 0 0 1 .9-3 15.3 15.3 0 0 1 2.2-3.4l1.9-2.4c3.5-1.9 8.4-3.8 10.3.1.7 1.5 1.1 3.2 3 1.7 1.1-.8 1.5-2.5 1.8-3.8a34 34 0 0 0 1-9.3 44 44 0 0 1-1 6.7z"/></g><path fill="#464353" d="M220 438l.5.3a2.1 2.1 0 0 1-.6-3l23.9-34.5a2.1 2.1 0 0 1 3-.6l-.6-.3a3.4 3.4 0 0 1 .9 4.7l-22.4 32.5a3.4 3.4 0 0 1-4.7.8z"/><path fill="#9f9eff" d="M246.5 400l.4.3-26.3 38-.4-.2a1.7 1.7 0 0 1-.4-2.4l24.2-35.3a1.7 1.7 0 0 1 2.5-.4z"/><rect width=".4" height="3.8" x="334.4" y="463.1" fill="#464353" rx=".2" ry=".2" transform="rotate(34.6 382.1 287.7)"/><path fill="#3acc6c" d="M749.4 282a17.3 17.3 0 1 1-17.3-17.2 17.3 17.3 0 0 1 17.3 17.2zm-19.3 9.1l12.8-12.8a1.1 1.1 0 0 0 0-1.5l-1.5-1.6a1.1 1.1 0 0 0-1.6 0l-10.4 10.4-5-4.8a1.1 1.1 0 0 0-1.5 0l-1.6 1.5a1.1 1.1 0 0 0 0 1.6l7.3 7.3a1.1 1.1 0 0 0 1.5 0zM540.2 471.5a17.3 17.3 0 1 1-17.3-17.2 17.3 17.3 0 0 1 17.3 17.2zm-19.3 9.2l12.9-12.8a1.1 1.1 0 0 0 0-1.6l-1.6-1.5a1.1 1.1 0 0 0-1.6 0L520 475.2l-4.9-5a1.1 1.1 0 0 0-1.5 0L512 472a1.1 1.1 0 0 0 0 1.5l7.2 7.3a1.1 1.1 0 0 0 1.6 0zM540.2 660.2a17.3 17.3 0 1 1-17.3-17.3 17.3 17.3 0 0 1 17.3 17.3zm-19.3 9.1l12.9-12.8a1.1 1.1 0 0 0 0-1.6l-1.6-1.5a1.1 1.1 0 0 0-1.6 0l-10.4 10.4-4.9-4.9a1.1 1.1 0 0 0-1.6 0l-1.6 1.6a1.1 1.1 0 0 0 0 1.6l7.3 7.2a1.1 1.1 0 0 0 1.6 0z"/></svg>