<svg xmlns="http://www.w3.org/2000/svg" xmlns:xlink="http://www.w3.org/1999/xlink" width="1009.5" height="839.6" data-name="Layer 1"><defs><linearGradient id="a" x1="378" x2="378" y1="475.1" y2="474.9" gradientUnits="userSpaceOnUse"><stop offset="0" stop-color="gray" stop-opacity=".3"/><stop offset=".5" stop-color="gray" stop-opacity=".1"/><stop offset="1" stop-color="gray" stop-opacity=".1"/></linearGradient><linearGradient id="b" x1="362.5" x2="362.5" y1="612.8" y2="216.2" xlink:href="#a"/></defs><path fill="#5c6ac4" d="M586.5 111.4c-64.7-2.3-126.3-23.1-185.2-46S284.2 17.2 221 5.1C180.4-2.7 133.9-3.8 101.2 18 69.7 39 59.5 75 54 108.7c-4.1 25.3-6.5 51.9 4.8 75.5 7.8 16.4 21.7 30.2 31.3 46 33.5 54.7 9.8 122.2-26.4 175.6-17 25-36.8 49-50 75.6S-5.3 538.7 6.2 566c11.4 27 38.5 47.3 67.9 61.5 59.7 29 130 37.2 198.6 42 151.8 10.3 304.4 5.8 456.7 1.3 56.3-1.7 112.9-3.3 168.3-12 30.8-4.9 62.6-12.6 85-31.1a71.1 71.1 0 0 0 16.3-92.9c-31.9-49.5-120-61.8-142.3-114.9-12.3-29.2.3-61.8 18.1-88.9 38.3-58.2 102.4-109.2 105.7-175.7 2.4-45.6-28.5-91.4-76-113-50-22.6-119.3-19.8-156 17.7-38 38.6-104.7 53.5-161.9 51.5z" opacity=".1"/><ellipse cx="483.5" cy="781" fill="#5c6ac4" opacity=".1" rx="304" ry="41.1"/><rect width="8.9" height="73" x="642.8" y="289.8" fill="#3a3768" rx="2.3" ry="2.3"/><rect width="5" height="24" x="348.4" y="232.6" fill="#3a3768" rx="2.3" ry="2.3"/><rect width="5.6" height="41.8" x="348.2" y="276.6" fill="#3a3768" rx="2.3" ry="2.3"/><rect width="5.3" height="42.2" x="348.3" y="333.1" fill="#3a3768" rx="2.3" ry="2.3"/><rect width="296.4" height="602.4" x="351.2" y="153.2" fill="#3a3768" rx="39" ry="39"/><path fill="#5c6ac4" d="M605.8 168.8h-34v4.1a19.4 19.4 0 0 1-19.4 19.4H444.3a19.4 19.4 0 0 1-19.4-19.4v-4H393a23.5 23.5 0 0 0-23.5 23.5v524a23.5 23.5 0 0 0 23.5 23.5h212.8a23.5 23.5 0 0 0 23.5-23.6V192.4a23.5 23.5 0 0 0-23.5-23.6z"/><rect width="41.4" height="8.4" x="470.8" y="171.2" fill="#e6e8ec" rx="3.9" ry="3.9"/><circle cx="523.2" cy="175.4" r="4.8" fill="#e6e8ec"/><path fill="#5c6ac4" d="M750.2 126.8s-84.2-5.1-74.3 53.9c0 0-2 10.4 7.5 15.1 0 0 .1-4.3 8.6-2.8a39.5 39.5 0 0 0 9.2.4 19 19 0 0 0 11.2-4.6s23.6-9.8 32.8-48.4c0 0 6.8-8.5 6.6-10.7l-14.2 6.1s4.8 10.3 1 18.8c0 0-.5-18.4-3.2-18-.6 0-7.4 3.5-7.4 3.5s8.3 17.9 2 30.9c0 0 2.4-22-4.6-29.6l-10 5.9s9.7 18.4 3.1 33.5c0 0 1.7-23.1-5.2-32.1l-9 7s9 18.2 3.5 30.7c0 0-.7-26.8-5.5-28.9 0 0-8 7-9.2 9.9 0 0 6.3 13.2 2.4 20.1 0 0-2.4-17.9-4.3-18 0 0-8 11.9-8.8 20 0 0 .4-12 6.8-21 0 0-7.6 1.2-12 6.2 0 0 1.2-8.4 14-9.1 0 0 6.5-9 8.3-9.6 0 0-12.8-1-20.5 2.4 0 0 6.8-8 22.8-4.3l9-7.3s-16.8-2.3-24 .2c0 0 8.2-7 26.4-1.9l9.7-5.8s-14.3-3.1-22.8-2c0 0 9-4.9 25.7.4l7-3.1s-10.5-2.1-13.6-2.4-3.2-1.2-3.2-1.2a36.4 36.4 0 0 1 19.7 2.2s14.7-5.5 14.5-6.4zM663.8 100.5s-38-2.3-33.5 24.4c0 0-1 4.7 3.4 6.8 0 0 0-2 3.9-1.3a17.5 17.5 0 0 0 4 .2 8.6 8.6 0 0 0 5.1-2s10.7-4.5 14.9-22c0 0 3-3.8 3-4.8l-6.5 2.8s2.2 4.6.5 8.5c0 0-.2-8.3-1.4-8.2-.3 0-3.4 1.7-3.4 1.7s3.8 8 1 13.9c0 0 1-10-2.2-13.4l-4.5 2.7s4.4 8.3 1.4 15.1c0 0 .8-10.4-2.3-14.4l-4.1 3.2s4.1 8.2 1.6 13.8c0 0-.3-12.1-2.5-13 0 0-3.6 3.1-4.1 4.4 0 0 2.8 6 1 9.1 0 0-1-8-2-8.1 0 0-3.5 5.3-3.9 9a19.5 19.5 0 0 1 3-9.6 10.8 10.8 0 0 0-5.4 2.9s.6-3.8 6.4-4.1c0 0 3-4.1 3.7-4.4 0 0-5.8-.4-9.3 1.1 0 0 3.1-3.6 10.3-2l4-3.2s-7.5-1-10.8 0c0 0 3.7-3 12-.8l4.3-2.6s-6.4-1.4-10.3-1c0 0 4-2.1 11.6.3l3.2-1.4-6.2-1.1c-1.4-.1-1.4-.6-1.4-.6a16.4 16.4 0 0 1 8.9 1s6.7-2.5 6.6-2.9z"/><ellipse cx="864.2" cy="773.3" fill="#5c6ac4" opacity=".1" rx="26.9" ry="4.5"/><ellipse cx="91.1" cy="810.7" fill="#5c6ac4" opacity=".1" rx="26.9" ry="4.5"/><ellipse cx="195.3" cy="835.1" fill="#5c6ac4" opacity=".1" rx="26.9" ry="4.5"/><ellipse cx="805.2" cy="822.1" fill="#5c6ac4" rx="40.2" ry="6.8"/><path fill="#5c6ac4" d="M821.9 811a11.7 11.7 0 0 0 3.8-5.8c.5-2.3-.5-5-2.7-5.9-2.5-1-5 .8-7 2.5s-4.4 3.7-7 3.3a10.5 10.5 0 0 0 3.3-9.8 4.1 4.1 0 0 0-1-2c-1.3-1.5-3.8-.8-5.4.3-5.2 3.7-6.6 10.7-6.7 17-.5-2.2 0-4.6 0-7s-.7-5-2.7-6.1a8 8 0 0 0-4-1c-2.4 0-5 .2-6.6 1.9-2 2.1-1.4 5.7.3 8s4.4 3.8 6.8 5.4a15 15 0 0 1 4.8 4.6 4.2 4.2 0 0 1 .4.8h14.6a41 41 0 0 0 9-6.2zM196.6 723.3s5.5 7.2-2.5 18-14.6 20-12 26.7c0 0 12.1-20.1 22-20.4s3.4-12.2-7.5-24.3z"/><path d="M196.6 723.3a8.8 8.8 0 0 1 1.2 2.2c9.6 11.3 14.7 21.9 5.5 22.1-8.6.3-19 15.7-21.5 19.6l.3.9s12.2-20.2 22-20.5 3.4-12.2-7.5-24.3z" opacity=".1"/><path fill="#ffd037" d="M206.9 732.4c0 2.6-.3 4.6-.7 4.6s-.6-2-.6-4.6.3-1.3.7-1.3.6-1.2.6 1.3z"/><path fill="#ffd037" d="M210.4 735.5c-2.3 1.2-4.2 1.9-4.4 1.6s1.5-1.6 3.8-2.8 1.3-.3 1.5 0 1.3 0-1 1.2z"/><path fill="#5c6ac4" d="M167.6 723.3s-5.5 7.2 2.6 18 14.6 20 12 26.7c0 0-12.1-20.1-22-20.4s-3.4-12.2 7.4-24.3z"/><path d="M167.6 723.3a9 9 0 0 0-1 2.2c-9.7 11.3-14.8 21.9-5.6 22.1 8.6.3 19 15.7 21.4 19.6a7.8 7.8 0 0 1-.3.9s-12-20.2-22-20.5-3.3-12.2 7.5-24.3z" opacity=".1"/><path fill="#ffd037" d="M157.4 732.4c0 2.6.3 4.6.7 4.6s.6-2 .6-4.6-.4-1.3-.7-1.3-.6-1.2-.6 1.3z"/><path fill="#ffd037" d="M154 735.5c2.1 1.2 4 1.9 4.2 1.6s-1.5-1.6-3.7-2.8-1.3-.3-1.5 0-1.3 0 1 1.2z"/><path fill="#a8a8a8" d="M159.2 767.1s15.3-.5 20-3.7 23.6-7.3 24.7-2 23.1 26.3 5.8 26.4-40.3-2.7-45-5.5-5.5-15.2-5.5-15.2z"/><path d="M210 786c-17.3.1-40.3-2.7-45-5.5-3.4-2.2-4.9-9.8-5.3-13.4h-.5s1 12.4 5.6 15.2 27.5 5.7 44.9 5.5c5 0 6.7-1.8 6.6-4.4-.7 1.6-2.6 2.6-6.3 2.6z" opacity=".2"/><path fill="url(#a)" d="M377.5 474.9a1 1 0 0 0 1 .1 3.9 3.9 0 0 1-1-.1z" transform="translate(-95.2 -30.2)"/><path fill="url(#b)" d="M497.3 275.9c-2.1-.6-5.1-1.6-8.7-3a46.8 46.8 0 0 0 8-16.4h-.3l.4-1c-7 2.8-14.7-2-19.6-8.2s-8.2-14-13.5-19.7a62.7 62.7 0 0 0-7.2-6.3c-1.6-1.2-3.3-2.5-5.2-2.6-3.2 0-5.6 3-8.6 4a11.6 11.6 0 0 1-6-.3c-7.8-1.8-15.3-5.1-23.2-6A26.8 26.8 0 0 0 401 218c-4 1.5-5.8 4.6-9 7-3.5 2.6-10.4 2.5-14.5 3a103.6 103.6 0 0 1-15 .6 33.9 33.9 0 0 0-8.5.3c-6 1.3-10.8 6.1-15.2 10.7a8 8 0 0 0-2.5 4 5.3 5.3 0 0 0 0 1.3 8.6 8.6 0 0 0 .6 3.5 46.4 46.4 0 0 0 5.7 11.7c1.8 2.6 4 5.1 5 8.2a16.2 16.2 0 0 1 .8 4.8 36.4 36.4 0 0 1-.6 5.1 65 65 0 0 1-3.8 13.6c-1 2.3-2 4.6-2.3 7.2a13 13 0 0 0 0 1.5c-.3 7.8 7.5 13.5 9 21.3a14.2 14.2 0 0 1 .2 1.9c-.1 4.9-2.9 9.6-6.9 11.5l1 .4a11.2 11.2 0 0 1-1 .6l2.3.7a52.6 52.6 0 0 0-11.4 14.2c-13.5 25.5-105.3 75.6-105.3 75.6l1.4.8-1 .7c-8 5.4-26.7 21-9.8 40.7 0 0 13.1-21 22.3-30l1.3-1a2.7 2.7 0 0 1 .3 2l60.3-34.3s21.5-15.2 27.5-18.6c2-1.2 7.3-4.5 13.6-6l-.7.4a27.1 27.1 0 0 1 6.9-1c10.7.1 22.2 8 26 39.5 5.1 42 2.8 49.6 1.1 50.6a2.9 2.9 0 0 1-.6 0 .9.9 0 0 0 .2 0 2.9 2.9 0 0 1-.7 0 1 1 0 0 0 1 .2.9.9 0 0 0 .6-.1h.8l-.1 1.1s-.5.3 0 .3v7.7c-5.3.2-10.6.6-15.3.9l.5-2.3.2-1c4-.3 7.9-1.5 8.3-4.9 1-7.3-9-11.3-17.4-11.7s-59.3 2.9-59.3 2.9-7.7 10 16.5 13.1l2.3 1.3c9.4 5.4 22.3 15.5 28.4 20.5l.9.7-2.8 2.2c15 3.4 29.5 61.4 37.4 87.9s25.5 25.5 40 21.6c13.5-3.7 15.2-43.6 15.4-48.6v-.5l24 30.1 1.9 2.3 2 1c18.3 8.9 38.5-8 32.7-27.2a522 522 0 0 0-20.8-60.2c-5-10.2-11.5-27-15.4-37.6a13.8 13.8 0 0 0 1.5-.7l-.3-1.3.3-.2s-5.8-30.5-6.1-52.2v-1.2-.7c4.3-1 7-1.4 7-1.4l.2-1-.6.2 2.5-28.1s8.9-19.2 2-27.2a17 17 0 0 1-4-8.3c-1-7.4 0-19.6 16-29.8 24.4-15.7 33.8-28.5 33.8-28.5s.6-9.4-14.4-13.8zm-48.5 19.5v-13c4.5-.2 9.1.3 13.7 0a34.6 34.6 0 0 0 6.6-1.1l1.1.7a120.7 120.7 0 0 1-21.4 13.4zm-69.3 203.8l5.4 3.9c1 6.4 2 11 2.1 11.2a90.2 90.2 0 0 0-7.5-15z" transform="translate(-95.2 -30.2)"/><path fill="#ffbdc6" d="M323.4 460.8l-1 5.9-.9 4.5-1.5 8.2-14.6 10.2-3.5-2.9c-6-5-18.6-15-27.9-20.4a31.2 31.2 0 0 0-7.6-3.5z"/><path d="M323.4 460.8l-1 5.9a45.7 45.7 0 0 1-9.7-.5l-34.2.5a104 104 0 0 1-4.5-.4 31.2 31.2 0 0 0-7.7-3.5z" opacity=".1"/><path fill="#474463" d="M312.7 465.2s17 3 18-4.4-8.7-11.2-17-11.7-58 3-58 3-8.9 11.6 22.9 13.6z"/><path d="M323.4 460.8l-1 5.9-.9 4.5-1.5 8.2-14.6 10.2-3.5-2.9c-6-5-18.6-15-27.9-20.4a31.2 31.2 0 0 0-7.6-3.5z" opacity=".1"/><path d="M323.4 460.8l-1 5.9a45.7 45.7 0 0 1-9.7-.5l-34.2.5a104 104 0 0 1-4.5-.4 31.2 31.2 0 0 0-7.7-3.5z" opacity=".1"/><path d="M312.7 465.2s17 2.9 18-4.4-8.7-11.3-17-11.8-58 3-58 3-8.9 11.7 22.8 13.6z" opacity=".1"/><path fill="#474463" d="M260.7 224.6H350v105.9h-89.3z"/><path d="M260.7 225.1H350V331h-89.3z" opacity=".1"/><path fill="#ffbdc6" d="M156 405.9c-1.4.4-3.3 1.8-5.4 3.8-9 9-21.9 29.9-21.9 29.9-16.4-19.7 1.8-35.2 9.6-40.5l3.1-2zM322.5 258s4.3 30.8 19.5 38.1-19.5 21-19.5 21L275 299.5s26.9-8.8 21.5-34.6zM271.7 443l-1 5.8-1 4.5-1.4 8.2-14.7 10.3-3.5-3c-6-4.9-18.6-15-27.9-20.3a31 31 0 0 0-7.6-3.6z"/><path d="M271.7 443l-1 5.8a45.7 45.7 0 0 1-9.7-.5l-34.2.5c-1.6 0-3.1-.2-4.5-.4a31 31 0 0 0-7.7-3.5z" opacity=".1"/><path fill="#474463" d="M261 447.4s17 2.9 18-4.4-8.8-11.2-17-11.7-58.1 2.9-58.1 2.9-8.8 11.7 23 13.7z"/><path d="M269.8 453.3l-1.5 8.2-14.7 10.3-3.5-3 19.4-15.8z" opacity=".1"/><path fill="#474463" d="M366.5 565l-2-1-1.8-2.2-23.7-30v.5c-.1 5-1.8 44.7-15 48.3-14.2 4-31.3 4.9-39-21.5s-22-83.9-36.7-87.3L270 454s14.4 16.8 20.3 33c-.2-1-10.2-47.5-2-55.7h71.2s11 31.3 18.6 46.8c5.8 12.1 14.7 40.6 20.3 59.9a22.9 22.9 0 0 1-32 27z"/><path d="M364.4 440c-11 6.6-59.3 4-75 2.9l-4.2-.4c-.5 0 0-.2 0-.2l.5-4.4 11.7-29.8 62.7-36.4a54.6 54.6 0 0 0-1.6 16.4c.3 21.6 6 52 6 52z" opacity=".1"/><path fill="#f2f1f2" d="M364.4 438.6c-11 6.5-59.3 3.8-75 2.8l-4.2-.3h-.8l.8-.3 3.9-1 8.3-33.2 62.7-36.3a54.6 54.6 0 0 0-1.6 16.4c.3 21.5 6 51.9 6 51.9z"/><path d="M358.4 386.7c-12.7 3-40.8 11.5-51.5 32.4-7.2 13.8-13.3 19.8-17.5 22.3l-4.3-.3a2.5 2.5 0 0 0 0-.3l4-1 8.2-33.2 62.7-36.3a54.7 54.7 0 0 0-1.6 16.4zM141.4 397.1l14.7 8.8c-1.5.4-3.4 1.8-5.5 3.8-1.2-3.5-8.8-8.5-12.3-10.6l3.1-2zM282.5 441.6a.9.9 0 0 1-1 0 3.5 3.5 0 0 0 1 0z" opacity=".1"/><path fill="#ff748e" d="M315.6 294.1s-13.2 1.5-22.4-8.3c0 0-39 11.3-52.2 36.6s-103 75.2-103 75.2 15.6 8.8 14.1 13.2l59-34.2s21-15.1 26.9-18.5 38-24.4 44.9 32.7 0 50.2 0 50.2 9.8 3.4 24-23.9 58-33.7 58-33.7l2.4-28.7s8.7-19.1 2-27a17 17 0 0 1-3.9-8.3c-1.1-7.3 0-19.5 15.5-29.6 24-15.6 33.2-28.3 33.2-28.3s.5-9.3-14.1-13.7-74.2-28.3-74.2-28.3l-2 8.3 47 33.2s-23.5 19-42 18.5c0 0 3.4 14.2-13.2 14.7z"/><path d="M324.7 271.4a95.3 95.3 0 0 1-2.7-11.9l-25.9 6.8a28.4 28.4 0 0 1-.6 15 27.8 27.8 0 0 0 29.2-9.9z" opacity=".1"/><circle cx="303.2" cy="252.9" r="27.8" fill="#ffbdc6"/><path d="M318 189.7c7.7.8 15 4.2 22.6 6a11.2 11.2 0 0 0 5.9.2c3-1 5.3-4 8.4-4 1.9 0 3.5 1.4 5.1 2.7a61.8 61.8 0 0 1 7 6.2c5.2 5.7 8.5 13.3 13.3 19.5s12.3 11 19 8.2c-4.5 18-19.7 31.7-36 32.8-6.6.5-13.3-.9-19.6 1a17.3 17.3 0 0 1-5 1.2c-3.6 0-6.5-3.3-8.8-6.6-5.3-7.6-9.5-16.3-15.5-23.2-2-2.3-4.3-4.5-7-5s-5.4 1-8 2.2c-4 2.2-8.2 4.4-11.4 8s-5.2 9.1-4 14c.8 2.7 2.4 5.1 2.4 7.9.1 4.4-3.8 7.7-4.6 12a45 45 0 0 0-.2 5.4c-.3 6-4.2 10.8-8.2 14.5-1.6 1.5-3.3 3-3.8 5.3-.3 1.5 0 3.1-.2 4.6-.6 3.9-4.4 5.8-7.8 6.3a22.7 22.7 0 0 1-11.7-1.3c4.7-2.3 7.6-8.7 6.5-14.4-1.5-7.9-9.4-13.6-8.8-21.6a25.2 25.2 0 0 1 2.2-7.2 65 65 0 0 0 3.8-13.5c.6-3.6.9-7.3-.2-10.7-1-3.2-3.1-5.6-4.9-8.2a46.5 46.5 0 0 1-5.6-11.6 8 8 0 0 1-.6-3.8 7.8 7.8 0 0 1 2.5-4c4.3-4.6 9-9.3 14.8-10.6a33 33 0 0 1 8.4-.3 98 98 0 0 0 14.7-.7c4-.4 10.7-.4 14.1-3 3.2-2.4 5-5.4 8.8-7a25.8 25.8 0 0 1 12.4-1.3zM333.4 476.9s16.1 31.7 11.3 41.5M362.6 561.7L339 531.8v.5s-1.3-9.6 3.2-6.4c9.8 7.1 25.6 18.8 25.9 20.8s-3.2 10-5.5 15z" opacity=".1"/><g opacity=".1"><path d="M329.3 279.5s2 8.2-4.5 12.4c10-1.7 10.4-9.4 10-12.8a31.4 31.4 0 0 1-5.5.4zM143.9 395.6s89.8-49.7 103-75.1c9.4-18.2 32.2-29.1 44.3-33.9-8.8 3-38.5 14.4-49.7 35.8-13.2 25.4-103 75.2-103 75.2zM346.8 275.6C362 271 376.6 259 376.6 259l-46.8-33.2 1-4.5-4.5-1.8-1.9 8.3 46.9 33.2a113.2 113.2 0 0 1-24.5 14.6zM347 388a116.5 116.5 0 0 1 18.4-4.6v-.9a124.5 124.5 0 0 0-18.4 5.6zM290.3 439.2h-.5a.9.9 0 0 1-1-.1 3.5 3.5 0 0 0 1 .1c1.6-1 4-8.2-1-50.4-5.4-45-26.5-41.5-38.1-36.3 11.8-3.3 28.1-.4 32.8 38.3 5 42.1 2.6 49.4 1 50.3a10.8 10.8 0 0 0 5.8-1.9zM284.5 441.2a3.5 3.5 0 0 1-1-.2.9.9 0 0 0 1 .2z"/></g><path fill="#474463" d="M318 188.7c7.7.9 15 4.2 22.6 6a11.2 11.2 0 0 0 5.9.2c3-.9 5.3-4 8.4-3.9 1.9 0 3.5 1.3 5.1 2.6a62.7 62.7 0 0 1 7 6.2c5.2 5.7 8.5 13.4 13.3 19.5s12.3 11 19 8.2c-4.5 18-19.7 31.7-36 32.8-6.6.5-13.3-.9-19.6 1a17 17 0 0 1-5 1.2c-3.6 0-6.5-3.3-8.8-6.6-5.3-7.6-9.5-16.3-15.5-23.2-2-2.3-4.3-4.5-7-5s-5.4 1-8 2.3c-4 2-8.2 4.3-11.4 8s-5.2 9-4 14c.8 2.6 2.4 5 2.4 7.8.1 4.4-3.8 7.7-4.6 12a45 45 0 0 0-.2 5.5c-.3 5.9-4.2 10.7-8.2 14.4-1.6 1.5-3.3 3-3.8 5.3-.3 1.5 0 3.1-.2 4.7-.6 3.8-4.4 5.8-7.8 6.3a22.5 22.5 0 0 1-11.7-1.4c4.7-2.3 7.6-8.7 6.5-14.4-1.5-7.9-9.4-13.6-8.8-21.6a25.1 25.1 0 0 1 2.2-7.2 65.3 65.3 0 0 0 3.8-13.5c.6-3.5.9-7.3-.2-10.7-1-3.1-3.1-5.6-4.9-8.2a46.6 46.6 0 0 1-5.6-11.6 8.1 8.1 0 0 1-.6-3.8 7.9 7.9 0 0 1 2.5-4c4.3-4.5 9-9.2 14.8-10.6a33.4 33.4 0 0 1 8.4-.3 99.4 99.4 0 0 0 14.7-.6c4-.5 10.7-.4 14.1-3 3.2-2.4 5-5.5 8.8-7a26 26 0 0 1 12.4-1.4z"/><circle cx="501.2" cy="461.8" r="56.1" fill="#fff"/><path fill="#3acc6c" d="M574.9 454.4a75 75 0 1 1-75-75 75 75 0 0 1 75 75zM491.3 494l55.5-55.5a4.8 4.8 0 0 0 0-6.9l-6.8-6.8a4.8 4.8 0 0 0-6.8 0l-45.4 45.4-21.1-21.3a4.8 4.8 0 0 0-6.9 0l-6.8 7a4.8 4.8 0 0 0 0 6.8l31.4 31.4a4.8 4.8 0 0 0 6.9 0z"/></svg>